ISO-10303-21;
HEADER;
/* Generated by software containing ST-Developer
 * from STEP Tools, Inc. (www.steptools.com) 
 */
/* OPTION: using custom renumber hook */

FILE_DESCRIPTION(
/* description */ ('STEP AP242',
'CAx-IF Rec.Pracs.---Representation and Presentation of Product Manufa
cturing Information (PMI)---4.0---2014-10-13',
'CAx-IF Rec.Pracs.---3D Tessellated Geometry---0.4---2014-09-14','2;1'),

/* implementation_level */ '2;1');

FILE_NAME(
/* name */ '689a106ed6116519f9d28373',
/* time_stamp */ '2025-08-11T15:46:55Z',
/* author */ (''),
/* organization */ (''),
/* preprocessor_version */ 'ST-DEVELOPER v20',
/* originating_system */ 'ONSHAPE BY PTC INC, 1.202',
/* authorisation */ '  ');

FILE_SCHEMA (('AP242_MANAGED_MODEL_BASED_3D_ENGINEERING_MIM_LF { 1 0 10303 442 1 1 4 }'));
ENDSEC;

DATA;
#10=SHAPE_REPRESENTATION_RELATIONSHIP('','',#627,#11);
#11=ADVANCED_BREP_SHAPE_REPRESENTATION('',(#625),#1213);
#12=TOROIDAL_SURFACE('',#693,0.0084,0.005);
#13=TOROIDAL_SURFACE('',#695,0.0334,0.005);
#14=TOROIDAL_SURFACE('',#696,0.0084,0.005);
#15=TOROIDAL_SURFACE('',#698,0.0334,0.005);
#16=TOROIDAL_SURFACE('',#699,0.00390031418363926,0.001);
#17=TOROIDAL_SURFACE('',#700,0.0216,0.001);
#18=TOROIDAL_SURFACE('',#702,0.00389999999999973,0.001);
#19=TOROIDAL_SURFACE('',#703,0.00390031418363926,0.001);
#20=TOROIDAL_SURFACE('',#704,0.0216,0.001);
#21=TOROIDAL_SURFACE('',#706,0.00389999999999973,0.001);
#22=B_SPLINE_CURVE_WITH_KNOTS('',3,(#909,#910,#911,#912),.UNSPECIFIED.,
 .F.,.F.,(4,4),(5.19721490126917E-18,0.000423324642266426),
 .UNSPECIFIED.);
#23=B_SPLINE_CURVE_WITH_KNOTS('',3,(#914,#915,#916,#917,#918,#919,#920,
#921,#922,#923,#924,#925),.UNSPECIFIED.,.F.,.F.,(4,1,1,1,1,1,1,1,1,4),(0.,
0.00134580423259657,0.00201870634889485,0.00269160846519313,0.00336451058149142,
0.0040374126977897,0.00437386375593884,0.00471031481408798,0.00504676587223712,
0.00538321693038626),.UNSPECIFIED.);
#24=B_SPLINE_CURVE_WITH_KNOTS('',3,(#952,#953,#954,#955,#956,#957,#958,
#959,#960,#961,#962,#963),.UNSPECIFIED.,.F.,.F.,(4,1,1,1,1,1,1,1,1,4),(0.,
0.00033881577586026,0.00067763155172052,0.00101644732758078,0.00135526310344104,
0.00203289465516156,0.00271052620688208,0.0033881577586026,0.00406578931032312,
0.00542105241376416),.UNSPECIFIED.);
#25=B_SPLINE_CURVE_WITH_KNOTS('',3,(#965,#966,#967,#968),.UNSPECIFIED.,
 .F.,.F.,(4,4),(0.,0.000479636010566752),.UNSPECIFIED.);
#26=B_SPLINE_CURVE_WITH_KNOTS('',3,(#982,#983,#984,#985),.UNSPECIFIED.,
 .F.,.F.,(4,4),(0.,0.000651913426846304),.UNSPECIFIED.);
#27=B_SPLINE_CURVE_WITH_KNOTS('',3,(#1040,#1041,#1042,#1043,#1044,#1045,
#1046,#1047,#1048,#1049),.UNSPECIFIED.,.F.,.F.,(4,1,1,1,1,1,1,4),(0.,0.00165527385856949,
0.00248291078785424,0.00331054771713898,0.00413818464642373,0.00496582157570847,
0.00579345850499322,0.00662109543427797),.UNSPECIFIED.);
#28=B_SPLINE_CURVE_WITH_KNOTS('',3,(#1051,#1052,#1053,#1054,#1055,#1056,
#1057,#1058,#1059,#1060),.UNSPECIFIED.,.F.,.F.,(4,1,1,1,1,1,1,4),(1.4637067577343E-32,
0.00083383527572317,0.00166767055144634,0.00250150582716951,0.00333534110289268,
0.00416917637861585,0.00500301165433902,0.00667068220578536),
 .UNSPECIFIED.);
#29=B_SPLINE_CURVE_WITH_KNOTS('',3,(#1064,#1065,#1066,#1067,#1068),
 .UNSPECIFIED.,.F.,.F.,(4,1,4),(0.,0.00296047317497041,0.00592094634994083),
 .UNSPECIFIED.);
#30=B_SPLINE_CURVE_WITH_KNOTS('',3,(#1070,#1071,#1072,#1073,#1074,#1075,
#1076,#1077,#1078,#1079),.UNSPECIFIED.,.F.,.F.,(4,1,1,1,1,1,1,4),(0.,0.00166010669672634,
0.00249016004508951,0.00332021339345267,0.00415026674181584,0.00498032009017901,
0.00581037343854218,0.00664042678690535),.UNSPECIFIED.);
#31=B_SPLINE_CURVE_WITH_KNOTS('',3,(#1081,#1082,#1083,#1084,#1085,#1086,
#1087,#1088,#1089,#1090),.UNSPECIFIED.,.F.,.F.,(4,1,1,1,1,1,1,4),(3.1614229641277E-16,
0.000830885345039573,0.00166177069007883,0.00249265603511809,0.00332354138015734,
0.0041544267251966,0.00498531207023586,0.00664708276031437),
 .UNSPECIFIED.);
#32=B_SPLINE_CURVE_WITH_KNOTS('',3,(#1094,#1095,#1096,#1097),
 .UNSPECIFIED.,.F.,.F.,(4,4),(0.,0.00151961495031719),.UNSPECIFIED.);
#33=B_SPLINE_CURVE_WITH_KNOTS('',3,(#1098,#1099,#1100,#1101),
 .UNSPECIFIED.,.F.,.F.,(4,4),(0.,0.00209302824703664),.UNSPECIFIED.);
#34=B_SPLINE_CURVE_WITH_KNOTS('',3,(#1103,#1104,#1105,#1106,#1107),
 .UNSPECIFIED.,.F.,.F.,(4,1,4),(0.,0.00367410681804733,0.00734821363609466),
 .UNSPECIFIED.);
#35=B_SPLINE_CURVE_WITH_KNOTS('',3,(#1111,#1112,#1113,#1114),
 .UNSPECIFIED.,.F.,.F.,(4,4),(0.,0.00047963600630855),.UNSPECIFIED.);
#36=B_SPLINE_CURVE_WITH_KNOTS('',3,(#1116,#1117,#1118,#1119,#1120,#1121,
#1122,#1123,#1124,#1125,#1126,#1127),.UNSPECIFIED.,.F.,.F.,(4,1,1,1,1,1,
1,1,1,4),(0.,0.00133224956979427,0.0019983743546914,0.00266449913958853,
0.00333062392448566,0.0039967487093828,0.00432981110183136,0.00466287349427993,
0.00499593588672849,0.00532899827917706),.UNSPECIFIED.);
#37=B_SPLINE_CURVE_WITH_KNOTS('',3,(#1135,#1136,#1137,#1138,#1139,#1140,
#1141,#1142,#1143,#1144,#1145,#1146),.UNSPECIFIED.,.F.,.F.,(4,1,1,1,1,1,
1,1,1,4),(0.,0.00134580423259644,0.00201870634889467,0.00269160846519289,
0.00336451058149111,0.00403741269778933,0.00437386375593844,0.00471031481408755,
0.00504676587223666,0.00538321693038578),.UNSPECIFIED.);
#38=B_SPLINE_CURVE_WITH_KNOTS('',3,(#1148,#1149,#1150,#1151),
 .UNSPECIFIED.,.F.,.F.,(4,4),(2.36713984859823E-16,0.000423324642266226),
 .UNSPECIFIED.);
#39=B_SPLINE_CURVE_WITH_KNOTS('',3,(#1156,#1157,#1158,#1159),
 .UNSPECIFIED.,.F.,.F.,(4,4),(0.,0.000653961722638838),.UNSPECIFIED.);
#40=B_SPLINE_CURVE_WITH_KNOTS('',3,(#1164,#1165,#1166,#1167,#1168),
 .UNSPECIFIED.,.F.,.F.,(4,1,4),(0.,0.00367864013517682,0.00735728027035364),
 .UNSPECIFIED.);
#41=B_SPLINE_CURVE_WITH_KNOTS('',3,(#1172,#1173,#1174,#1175),
 .UNSPECIFIED.,.F.,.F.,(4,4),(0.,0.00209220024080812),.UNSPECIFIED.);
#42=B_SPLINE_CURVE_WITH_KNOTS('',3,(#1176,#1177,#1178,#1179),
 .UNSPECIFIED.,.F.,.F.,(4,4),(0.,0.00152009424950597),.UNSPECIFIED.);
#43=B_SPLINE_CURVE_WITH_KNOTS('',3,(#1181,#1182,#1183,#1184,#1185),
 .UNSPECIFIED.,.F.,.F.,(4,1,4),(0.,0.00296024737962607,0.00592049475925213),
 .UNSPECIFIED.);
#44=B_SPLINE_CURVE_WITH_KNOTS('',3,(#1193,#1194,#1195,#1196,#1197,#1198),
 .UNSPECIFIED.,.F.,.F.,(4,1,1,4),(0.0146386989390832,0.260979024204312,
0.507319349469542,1.),.UNSPECIFIED.);
#45=B_SPLINE_CURVE_WITH_KNOTS('',3,(#1203,#1204,#1205,#1206,#1207,#1208),
 .UNSPECIFIED.,.F.,.F.,(4,1,1,4),(0.,0.492680600774244,0.739020901161365,
0.985361201548487),.UNSPECIFIED.);
#46=LINE('',#907,#70);
#47=LINE('',#927,#71);
#48=LINE('',#931,#72);
#49=LINE('',#938,#73);
#50=LINE('',#942,#74);
#51=LINE('',#946,#75);
#52=LINE('',#950,#76);
#53=LINE('',#970,#77);
#54=LINE('',#974,#78);
#55=LINE('',#979,#79);
#56=LINE('',#987,#80);
#57=LINE('',#993,#81);
#58=LINE('',#1021,#82);
#59=LINE('',#1025,#83);
#60=LINE('',#1034,#84);
#61=LINE('',#1038,#85);
#62=LINE('',#1062,#86);
#63=LINE('',#1092,#87);
#64=LINE('',#1109,#88);
#65=LINE('',#1129,#89);
#66=LINE('',#1133,#90);
#67=LINE('',#1154,#91);
#68=LINE('',#1162,#92);
#69=LINE('',#1170,#93);
#70=VECTOR('',#729,1.);
#71=VECTOR('',#730,1.);
#72=VECTOR('',#733,1.);
#73=VECTOR('',#742,1.);
#74=VECTOR('',#745,1.);
#75=VECTOR('',#748,1.);
#76=VECTOR('',#753,1.);
#77=VECTOR('',#754,1.);
#78=VECTOR('',#761,1.);
#79=VECTOR('',#764,1.);
#80=VECTOR('',#767,1.);
#81=VECTOR('',#774,1.);
#82=VECTOR('',#807,1.);
#83=VECTOR('',#810,1.);
#84=VECTOR('',#819,1.);
#85=VECTOR('',#822,1.);
#86=VECTOR('',#827,1.);
#87=VECTOR('',#832,1.);
#88=VECTOR('',#837,1.);
#89=VECTOR('',#840,1.);
#90=VECTOR('',#845,1.);
#91=VECTOR('',#850,1.);
#92=VECTOR('',#855,1.);
#93=VECTOR('',#858,1.);
#94=CYLINDRICAL_SURFACE('',#636,0.0021);
#95=CYLINDRICAL_SURFACE('',#638,0.0034);
#96=CYLINDRICAL_SURFACE('',#640,0.0021);
#97=CYLINDRICAL_SURFACE('',#642,0.0284);
#98=CYLINDRICAL_SURFACE('',#646,0.0034);
#99=CYLINDRICAL_SURFACE('',#648,0.0216);
#100=CYLINDRICAL_SURFACE('',#650,0.00290031418363926);
#101=CYLINDRICAL_SURFACE('',#654,0.0226);
#102=CYLINDRICAL_SURFACE('',#678,0.0021);
#103=CYLINDRICAL_SURFACE('',#680,0.0021);
#104=CYLINDRICAL_SURFACE('',#681,0.0034);
#105=CYLINDRICAL_SURFACE('',#683,0.0034);
#106=CYLINDRICAL_SURFACE('',#684,0.0216);
#107=CYLINDRICAL_SURFACE('',#686,0.00339999999999976);
#108=CYLINDRICAL_SURFACE('',#687,0.00289999999999973);
#109=CYLINDRICAL_SURFACE('',#691,0.0034);
#110=ORIENTED_EDGE('',*,*,#290,.T.);
#111=ORIENTED_EDGE('',*,*,#291,.F.);
#112=ORIENTED_EDGE('',*,*,#292,.F.);
#113=ORIENTED_EDGE('',*,*,#293,.F.);
#114=ORIENTED_EDGE('',*,*,#294,.T.);
#115=ORIENTED_EDGE('',*,*,#295,.T.);
#116=ORIENTED_EDGE('',*,*,#296,.F.);
#117=ORIENTED_EDGE('',*,*,#295,.F.);
#118=ORIENTED_EDGE('',*,*,#297,.F.);
#119=ORIENTED_EDGE('',*,*,#298,.T.);
#120=ORIENTED_EDGE('',*,*,#299,.T.);
#121=ORIENTED_EDGE('',*,*,#300,.F.);
#122=ORIENTED_EDGE('',*,*,#301,.T.);
#123=ORIENTED_EDGE('',*,*,#302,.T.);
#124=ORIENTED_EDGE('',*,*,#291,.T.);
#125=ORIENTED_EDGE('',*,*,#303,.F.);
#126=ORIENTED_EDGE('',*,*,#294,.F.);
#127=ORIENTED_EDGE('',*,*,#302,.F.);
#128=ORIENTED_EDGE('',*,*,#304,.T.);
#129=ORIENTED_EDGE('',*,*,#305,.F.);
#130=ORIENTED_EDGE('',*,*,#306,.T.);
#131=ORIENTED_EDGE('',*,*,#307,.T.);
#132=ORIENTED_EDGE('',*,*,#308,.T.);
#133=ORIENTED_EDGE('',*,*,#309,.T.);
#134=ORIENTED_EDGE('',*,*,#292,.T.);
#135=ORIENTED_EDGE('',*,*,#309,.F.);
#136=ORIENTED_EDGE('',*,*,#310,.T.);
#137=ORIENTED_EDGE('',*,*,#311,.T.);
#138=ORIENTED_EDGE('',*,*,#312,.T.);
#139=ORIENTED_EDGE('',*,*,#313,.T.);
#140=ORIENTED_EDGE('',*,*,#314,.T.);
#141=ORIENTED_EDGE('',*,*,#293,.T.);
#142=ORIENTED_EDGE('',*,*,#315,.F.);
#143=ORIENTED_EDGE('',*,*,#297,.T.);
#144=ORIENTED_EDGE('',*,*,#290,.F.);
#145=ORIENTED_EDGE('',*,*,#314,.F.);
#146=ORIENTED_EDGE('',*,*,#316,.T.);
#147=ORIENTED_EDGE('',*,*,#317,.T.);
#148=ORIENTED_EDGE('',*,*,#318,.T.);
#149=ORIENTED_EDGE('',*,*,#319,.T.);
#150=ORIENTED_EDGE('',*,*,#311,.F.);
#151=ORIENTED_EDGE('',*,*,#320,.T.);
#152=ORIENTED_EDGE('',*,*,#321,.F.);
#153=ORIENTED_EDGE('',*,*,#322,.T.);
#154=ORIENTED_EDGE('',*,*,#318,.F.);
#155=ORIENTED_EDGE('',*,*,#323,.T.);
#156=ORIENTED_EDGE('',*,*,#324,.T.);
#157=ORIENTED_EDGE('',*,*,#325,.T.);
#158=ORIENTED_EDGE('',*,*,#296,.T.);
#159=ORIENTED_EDGE('',*,*,#303,.T.);
#160=ORIENTED_EDGE('',*,*,#326,.T.);
#161=ORIENTED_EDGE('',*,*,#327,.T.);
#162=ORIENTED_EDGE('',*,*,#328,.T.);
#163=ORIENTED_EDGE('',*,*,#329,.T.);
#164=ORIENTED_EDGE('',*,*,#330,.F.);
#165=ORIENTED_EDGE('',*,*,#331,.T.);
#166=ORIENTED_EDGE('',*,*,#332,.T.);
#167=ORIENTED_EDGE('',*,*,#333,.T.);
#168=ORIENTED_EDGE('',*,*,#334,.T.);
#169=ORIENTED_EDGE('',*,*,#335,.T.);
#170=ORIENTED_EDGE('',*,*,#336,.T.);
#171=ORIENTED_EDGE('',*,*,#337,.F.);
#172=ORIENTED_EDGE('',*,*,#338,.F.);
#173=ORIENTED_EDGE('',*,*,#339,.F.);
#174=ORIENTED_EDGE('',*,*,#340,.F.);
#175=ORIENTED_EDGE('',*,*,#341,.T.);
#176=ORIENTED_EDGE('',*,*,#342,.F.);
#177=ORIENTED_EDGE('',*,*,#322,.F.);
#178=ORIENTED_EDGE('',*,*,#343,.F.);
#179=ORIENTED_EDGE('',*,*,#344,.T.);
#180=ORIENTED_EDGE('',*,*,#345,.F.);
#181=ORIENTED_EDGE('',*,*,#306,.F.);
#182=ORIENTED_EDGE('',*,*,#335,.F.);
#183=ORIENTED_EDGE('',*,*,#326,.F.);
#184=ORIENTED_EDGE('',*,*,#346,.T.);
#185=ORIENTED_EDGE('',*,*,#347,.T.);
#186=ORIENTED_EDGE('',*,*,#307,.F.);
#187=ORIENTED_EDGE('',*,*,#345,.T.);
#188=ORIENTED_EDGE('',*,*,#348,.T.);
#189=ORIENTED_EDGE('',*,*,#349,.T.);
#190=ORIENTED_EDGE('',*,*,#334,.F.);
#191=ORIENTED_EDGE('',*,*,#332,.F.);
#192=ORIENTED_EDGE('',*,*,#350,.T.);
#193=ORIENTED_EDGE('',*,*,#351,.T.);
#194=ORIENTED_EDGE('',*,*,#344,.F.);
#195=ORIENTED_EDGE('',*,*,#352,.T.);
#196=ORIENTED_EDGE('',*,*,#353,.T.);
#197=ORIENTED_EDGE('',*,*,#328,.F.);
#198=ORIENTED_EDGE('',*,*,#354,.T.);
#199=ORIENTED_EDGE('',*,*,#348,.F.);
#200=ORIENTED_EDGE('',*,*,#352,.F.);
#201=ORIENTED_EDGE('',*,*,#343,.T.);
#202=ORIENTED_EDGE('',*,*,#321,.T.);
#203=ORIENTED_EDGE('',*,*,#355,.T.);
#204=ORIENTED_EDGE('',*,*,#316,.F.);
#205=ORIENTED_EDGE('',*,*,#342,.T.);
#206=ORIENTED_EDGE('',*,*,#356,.T.);
#207=ORIENTED_EDGE('',*,*,#357,.T.);
#208=ORIENTED_EDGE('',*,*,#358,.T.);
#209=ORIENTED_EDGE('',*,*,#341,.F.);
#210=ORIENTED_EDGE('',*,*,#359,.T.);
#211=ORIENTED_EDGE('',*,*,#360,.F.);
#212=ORIENTED_EDGE('',*,*,#356,.F.);
#213=ORIENTED_EDGE('',*,*,#359,.F.);
#214=ORIENTED_EDGE('',*,*,#340,.T.);
#215=ORIENTED_EDGE('',*,*,#361,.T.);
#216=ORIENTED_EDGE('',*,*,#362,.T.);
#217=ORIENTED_EDGE('',*,*,#363,.T.);
#218=ORIENTED_EDGE('',*,*,#324,.F.);
#219=ORIENTED_EDGE('',*,*,#364,.T.);
#220=ORIENTED_EDGE('',*,*,#361,.F.);
#221=ORIENTED_EDGE('',*,*,#339,.T.);
#222=ORIENTED_EDGE('',*,*,#365,.T.);
#223=ORIENTED_EDGE('',*,*,#366,.T.);
#224=ORIENTED_EDGE('',*,*,#300,.T.);
#225=ORIENTED_EDGE('',*,*,#367,.T.);
#226=ORIENTED_EDGE('',*,*,#365,.F.);
#227=ORIENTED_EDGE('',*,*,#338,.T.);
#228=ORIENTED_EDGE('',*,*,#368,.T.);
#229=ORIENTED_EDGE('',*,*,#369,.T.);
#230=ORIENTED_EDGE('',*,*,#368,.F.);
#231=ORIENTED_EDGE('',*,*,#337,.T.);
#232=ORIENTED_EDGE('',*,*,#370,.T.);
#233=ORIENTED_EDGE('',*,*,#371,.T.);
#234=ORIENTED_EDGE('',*,*,#330,.T.);
#235=ORIENTED_EDGE('',*,*,#372,.T.);
#236=ORIENTED_EDGE('',*,*,#336,.F.);
#237=ORIENTED_EDGE('',*,*,#305,.T.);
#238=ORIENTED_EDGE('',*,*,#373,.T.);
#239=ORIENTED_EDGE('',*,*,#370,.F.);
#240=ORIENTED_EDGE('',*,*,#333,.F.);
#241=ORIENTED_EDGE('',*,*,#351,.F.);
#242=ORIENTED_EDGE('',*,*,#374,.F.);
#243=ORIENTED_EDGE('',*,*,#301,.F.);
#244=ORIENTED_EDGE('',*,*,#366,.F.);
#245=ORIENTED_EDGE('',*,*,#369,.F.);
#246=ORIENTED_EDGE('',*,*,#372,.F.);
#247=ORIENTED_EDGE('',*,*,#373,.F.);
#248=ORIENTED_EDGE('',*,*,#304,.F.);
#249=ORIENTED_EDGE('',*,*,#374,.T.);
#250=ORIENTED_EDGE('',*,*,#350,.F.);
#251=ORIENTED_EDGE('',*,*,#331,.F.);
#252=ORIENTED_EDGE('',*,*,#371,.F.);
#253=ORIENTED_EDGE('',*,*,#320,.F.);
#254=ORIENTED_EDGE('',*,*,#310,.F.);
#255=ORIENTED_EDGE('',*,*,#375,.F.);
#256=ORIENTED_EDGE('',*,*,#346,.F.);
#257=ORIENTED_EDGE('',*,*,#329,.F.);
#258=ORIENTED_EDGE('',*,*,#353,.F.);
#259=ORIENTED_EDGE('',*,*,#355,.F.);
#260=ORIENTED_EDGE('',*,*,#375,.T.);
#261=ORIENTED_EDGE('',*,*,#308,.F.);
#262=ORIENTED_EDGE('',*,*,#349,.F.);
#263=ORIENTED_EDGE('',*,*,#354,.F.);
#264=ORIENTED_EDGE('',*,*,#327,.F.);
#265=ORIENTED_EDGE('',*,*,#347,.F.);
#266=ORIENTED_EDGE('',*,*,#317,.F.);
#267=ORIENTED_EDGE('',*,*,#358,.F.);
#268=ORIENTED_EDGE('',*,*,#376,.F.);
#269=ORIENTED_EDGE('',*,*,#360,.T.);
#270=ORIENTED_EDGE('',*,*,#363,.F.);
#271=ORIENTED_EDGE('',*,*,#377,.F.);
#272=ORIENTED_EDGE('',*,*,#323,.F.);
#273=ORIENTED_EDGE('',*,*,#376,.T.);
#274=ORIENTED_EDGE('',*,*,#357,.F.);
#275=ORIENTED_EDGE('',*,*,#362,.F.);
#276=ORIENTED_EDGE('',*,*,#364,.F.);
#277=ORIENTED_EDGE('',*,*,#377,.T.);
#278=ORIENTED_EDGE('',*,*,#312,.F.);
#279=ORIENTED_EDGE('',*,*,#319,.F.);
#280=ORIENTED_EDGE('',*,*,#378,.F.);
#281=ORIENTED_EDGE('',*,*,#378,.T.);
#282=ORIENTED_EDGE('',*,*,#325,.F.);
#283=ORIENTED_EDGE('',*,*,#379,.F.);
#284=ORIENTED_EDGE('',*,*,#298,.F.);
#285=ORIENTED_EDGE('',*,*,#315,.T.);
#286=ORIENTED_EDGE('',*,*,#313,.F.);
#287=ORIENTED_EDGE('',*,*,#367,.F.);
#288=ORIENTED_EDGE('',*,*,#299,.F.);
#289=ORIENTED_EDGE('',*,*,#379,.T.);
#290=EDGE_CURVE('',#380,#381,#440,.T.);
#291=EDGE_CURVE('',#382,#381,#441,.T.);
#292=EDGE_CURVE('',#383,#382,#442,.T.);
#293=EDGE_CURVE('',#380,#383,#443,.T.);
#294=EDGE_CURVE('',#384,#384,#444,.T.);
#295=EDGE_CURVE('',#385,#385,#445,.T.);
#296=EDGE_CURVE('',#386,#386,#446,.T.);
#297=EDGE_CURVE('',#387,#381,#46,.T.);
#298=EDGE_CURVE('',#387,#388,#22,.T.);
#299=EDGE_CURVE('',#388,#389,#23,.T.);
#300=EDGE_CURVE('',#390,#389,#47,.T.);
#301=EDGE_CURVE('',#390,#391,#447,.F.);
#302=EDGE_CURVE('',#391,#382,#48,.T.);
#303=EDGE_CURVE('',#392,#392,#448,.T.);
#304=EDGE_CURVE('',#391,#393,#449,.F.);
#305=EDGE_CURVE('',#394,#393,#49,.T.);
#306=EDGE_CURVE('',#394,#395,#450,.T.);
#307=EDGE_CURVE('',#395,#396,#50,.T.);
#308=EDGE_CURVE('',#396,#397,#451,.F.);
#309=EDGE_CURVE('',#397,#383,#51,.T.);
#310=EDGE_CURVE('',#397,#398,#452,.F.);
#311=EDGE_CURVE('',#398,#399,#52,.T.);
#312=EDGE_CURVE('',#399,#400,#24,.T.);
#313=EDGE_CURVE('',#400,#401,#25,.T.);
#314=EDGE_CURVE('',#401,#380,#53,.T.);
#315=EDGE_CURVE('',#387,#401,#453,.T.);
#316=EDGE_CURVE('',#402,#403,#54,.T.);
#317=EDGE_CURVE('',#403,#404,#454,.F.);
#318=EDGE_CURVE('',#404,#405,#55,.T.);
#319=EDGE_CURVE('',#405,#399,#455,.F.);
#320=EDGE_CURVE('',#398,#406,#26,.T.);
#321=EDGE_CURVE('',#407,#406,#56,.T.);
#322=EDGE_CURVE('',#407,#402,#456,.T.);
#323=EDGE_CURVE('',#404,#408,#457,.T.);
#324=EDGE_CURVE('',#408,#409,#57,.T.);
#325=EDGE_CURVE('',#409,#405,#458,.T.);
#326=EDGE_CURVE('',#410,#411,#459,.T.);
#327=EDGE_CURVE('',#411,#412,#460,.T.);
#328=EDGE_CURVE('',#412,#413,#461,.F.);
#329=EDGE_CURVE('',#413,#410,#462,.T.);
#330=EDGE_CURVE('',#414,#415,#463,.T.);
#331=EDGE_CURVE('',#414,#416,#464,.T.);
#332=EDGE_CURVE('',#416,#417,#465,.T.);
#333=EDGE_CURVE('',#417,#415,#466,.T.);
#334=EDGE_CURVE('',#418,#418,#467,.T.);
#335=EDGE_CURVE('',#419,#419,#468,.T.);
#336=EDGE_CURVE('',#394,#420,#58,.T.);
#337=EDGE_CURVE('',#421,#420,#469,.T.);
#338=EDGE_CURVE('',#422,#421,#59,.T.);
#339=EDGE_CURVE('',#423,#422,#470,.T.);
#340=EDGE_CURVE('',#424,#423,#471,.T.);
#341=EDGE_CURVE('',#424,#425,#472,.T.);
#342=EDGE_CURVE('',#402,#425,#473,.T.);
#343=EDGE_CURVE('',#426,#407,#60,.T.);
#344=EDGE_CURVE('',#426,#427,#474,.F.);
#345=EDGE_CURVE('',#395,#427,#61,.T.);
#346=EDGE_CURVE('',#410,#428,#27,.T.);
#347=EDGE_CURVE('',#428,#411,#28,.T.);
#348=EDGE_CURVE('',#427,#429,#62,.T.);
#349=EDGE_CURVE('',#429,#396,#29,.T.);
#350=EDGE_CURVE('',#416,#430,#30,.T.);
#351=EDGE_CURVE('',#430,#417,#31,.T.);
#352=EDGE_CURVE('',#426,#431,#63,.T.);
#353=EDGE_CURVE('',#431,#413,#32,.T.);
#354=EDGE_CURVE('',#412,#429,#33,.T.);
#355=EDGE_CURVE('',#406,#431,#34,.T.);
#356=EDGE_CURVE('',#425,#432,#64,.T.);
#357=EDGE_CURVE('',#432,#433,#35,.T.);
#358=EDGE_CURVE('',#433,#403,#36,.T.);
#359=EDGE_CURVE('',#424,#434,#65,.T.);
#360=EDGE_CURVE('',#432,#434,#475,.T.);
#361=EDGE_CURVE('',#423,#435,#66,.T.);
#362=EDGE_CURVE('',#435,#436,#37,.F.);
#363=EDGE_CURVE('',#436,#434,#38,.F.);
#364=EDGE_CURVE('',#408,#435,#476,.F.);
#365=EDGE_CURVE('',#422,#437,#67,.T.);
#366=EDGE_CURVE('',#437,#390,#39,.T.);
#367=EDGE_CURVE('',#389,#409,#477,.F.);
#368=EDGE_CURVE('',#421,#438,#68,.T.);
#369=EDGE_CURVE('',#438,#437,#40,.T.);
#370=EDGE_CURVE('',#420,#439,#69,.T.);
#371=EDGE_CURVE('',#439,#414,#41,.T.);
#372=EDGE_CURVE('',#415,#438,#42,.T.);
#373=EDGE_CURVE('',#393,#439,#43,.T.);
#374=EDGE_CURVE('',#391,#430,#478,.T.);
#375=EDGE_CURVE('',#428,#397,#479,.T.);
#376=EDGE_CURVE('',#404,#433,#44,.F.);
#377=EDGE_CURVE('',#408,#436,#480,.T.);
#378=EDGE_CURVE('',#400,#405,#45,.F.);
#379=EDGE_CURVE('',#388,#409,#481,.T.);
#380=VERTEX_POINT('',#892);
#381=VERTEX_POINT('',#893);
#382=VERTEX_POINT('',#895);
#383=VERTEX_POINT('',#897);
#384=VERTEX_POINT('',#900);
#385=VERTEX_POINT('',#902);
#386=VERTEX_POINT('',#905);
#387=VERTEX_POINT('',#908);
#388=VERTEX_POINT('',#913);
#389=VERTEX_POINT('',#926);
#390=VERTEX_POINT('',#928);
#391=VERTEX_POINT('',#930);
#392=VERTEX_POINT('',#934);
#393=VERTEX_POINT('',#937);
#394=VERTEX_POINT('',#939);
#395=VERTEX_POINT('',#941);
#396=VERTEX_POINT('',#943);
#397=VERTEX_POINT('',#945);
#398=VERTEX_POINT('',#949);
#399=VERTEX_POINT('',#951);
#400=VERTEX_POINT('',#964);
#401=VERTEX_POINT('',#969);
#402=VERTEX_POINT('',#975);
#403=VERTEX_POINT('',#976);
#404=VERTEX_POINT('',#978);
#405=VERTEX_POINT('',#980);
#406=VERTEX_POINT('',#986);
#407=VERTEX_POINT('',#988);
#408=VERTEX_POINT('',#992);
#409=VERTEX_POINT('',#994);
#410=VERTEX_POINT('',#1000);
#411=VERTEX_POINT('',#1001);
#412=VERTEX_POINT('',#1003);
#413=VERTEX_POINT('',#1005);
#414=VERTEX_POINT('',#1009);
#415=VERTEX_POINT('',#1010);
#416=VERTEX_POINT('',#1012);
#417=VERTEX_POINT('',#1014);
#418=VERTEX_POINT('',#1018);
#419=VERTEX_POINT('',#1020);
#420=VERTEX_POINT('',#1022);
#421=VERTEX_POINT('',#1024);
#422=VERTEX_POINT('',#1026);
#423=VERTEX_POINT('',#1028);
#424=VERTEX_POINT('',#1030);
#425=VERTEX_POINT('',#1032);
#426=VERTEX_POINT('',#1035);
#427=VERTEX_POINT('',#1037);
#428=VERTEX_POINT('',#1050);
#429=VERTEX_POINT('',#1063);
#430=VERTEX_POINT('',#1080);
#431=VERTEX_POINT('',#1093);
#432=VERTEX_POINT('',#1110);
#433=VERTEX_POINT('',#1115);
#434=VERTEX_POINT('',#1130);
#435=VERTEX_POINT('',#1134);
#436=VERTEX_POINT('',#1147);
#437=VERTEX_POINT('',#1155);
#438=VERTEX_POINT('',#1163);
#439=VERTEX_POINT('',#1171);
#440=CIRCLE('',#630,0.0216);
#441=CIRCLE('',#631,0.0034);
#442=CIRCLE('',#632,0.0284);
#443=CIRCLE('',#633,0.0034);
#444=CIRCLE('',#634,0.0021);
#445=CIRCLE('',#635,0.0021);
#446=CIRCLE('',#637,0.0021);
#447=CIRCLE('',#639,0.0034);
#448=CIRCLE('',#641,0.0021);
#449=CIRCLE('',#643,0.0284);
#450=CIRCLE('',#644,0.0284);
#451=CIRCLE('',#645,0.0284);
#452=CIRCLE('',#647,0.0034);
#453=CIRCLE('',#649,0.0216);
#454=CIRCLE('',#651,0.00290031418363926);
#455=CIRCLE('',#652,0.00290031418363926);
#456=CIRCLE('',#653,0.0029003141836391);
#457=CIRCLE('',#655,0.0226);
#458=CIRCLE('',#656,0.0226);
#459=CIRCLE('',#660,0.0021);
#460=CIRCLE('',#661,0.0334);
#461=CIRCLE('',#662,0.0034);
#462=CIRCLE('',#663,0.0084);
#463=CIRCLE('',#665,0.0034);
#464=CIRCLE('',#666,0.0334);
#465=CIRCLE('',#667,0.0021);
#466=CIRCLE('',#668,0.0084);
#467=CIRCLE('',#670,0.0021);
#468=CIRCLE('',#671,0.0021);
#469=CIRCLE('',#672,0.0034);
#470=CIRCLE('',#673,0.00289999999999973);
#471=CIRCLE('',#674,0.00339999999999976);
#472=CIRCLE('',#675,0.0216);
#473=CIRCLE('',#676,0.0034);
#474=CIRCLE('',#677,0.0034);
#475=CIRCLE('',#685,0.0216);
#476=CIRCLE('',#688,0.00289999999999973);
#477=CIRCLE('',#689,0.00289999999999973);
#478=CIRCLE('',#694,0.005);
#479=CIRCLE('',#697,0.005);
#480=CIRCLE('',#701,0.001);
#481=CIRCLE('',#705,0.001);
#482=EDGE_LOOP('',(#110,#111,#112,#113));
#483=EDGE_LOOP('',(#114));
#484=EDGE_LOOP('',(#115));
#485=EDGE_LOOP('',(#116));
#486=EDGE_LOOP('',(#117));
#487=EDGE_LOOP('',(#118,#119,#120,#121,#122,#123,#124));
#488=EDGE_LOOP('',(#125));
#489=EDGE_LOOP('',(#126));
#490=EDGE_LOOP('',(#127,#128,#129,#130,#131,#132,#133,#134));
#491=EDGE_LOOP('',(#135,#136,#137,#138,#139,#140,#141));
#492=EDGE_LOOP('',(#142,#143,#144,#145));
#493=EDGE_LOOP('',(#146,#147,#148,#149,#150,#151,#152,#153));
#494=EDGE_LOOP('',(#154,#155,#156,#157));
#495=EDGE_LOOP('',(#158));
#496=EDGE_LOOP('',(#159));
#497=EDGE_LOOP('',(#160,#161,#162,#163));
#498=EDGE_LOOP('',(#164,#165,#166,#167));
#499=EDGE_LOOP('',(#168));
#500=EDGE_LOOP('',(#169));
#501=EDGE_LOOP('',(#170,#171,#172,#173,#174,#175,#176,#177,#178,#179,#180,
#181));
#502=EDGE_LOOP('',(#182));
#503=EDGE_LOOP('',(#183,#184,#185));
#504=EDGE_LOOP('',(#186,#187,#188,#189));
#505=EDGE_LOOP('',(#190));
#506=EDGE_LOOP('',(#191,#192,#193));
#507=EDGE_LOOP('',(#194,#195,#196,#197,#198,#199));
#508=EDGE_LOOP('',(#200,#201,#202,#203));
#509=EDGE_LOOP('',(#204,#205,#206,#207,#208));
#510=EDGE_LOOP('',(#209,#210,#211,#212));
#511=EDGE_LOOP('',(#213,#214,#215,#216,#217));
#512=EDGE_LOOP('',(#218,#219,#220,#221,#222,#223,#224,#225));
#513=EDGE_LOOP('',(#226,#227,#228,#229));
#514=EDGE_LOOP('',(#230,#231,#232,#233,#234,#235));
#515=EDGE_LOOP('',(#236,#237,#238,#239));
#516=EDGE_LOOP('',(#240,#241,#242,#243,#244,#245,#246));
#517=EDGE_LOOP('',(#247,#248,#249,#250,#251,#252));
#518=EDGE_LOOP('',(#253,#254,#255,#256,#257,#258,#259));
#519=EDGE_LOOP('',(#260,#261,#262,#263,#264,#265));
#520=EDGE_LOOP('',(#266,#267,#268));
#521=EDGE_LOOP('',(#269,#270,#271,#272,#273,#274));
#522=EDGE_LOOP('',(#275,#276,#277));
#523=EDGE_LOOP('',(#278,#279,#280));
#524=EDGE_LOOP('',(#281,#282,#283,#284,#285,#286));
#525=EDGE_LOOP('',(#287,#288,#289));
#526=FACE_BOUND('',#482,.T.);
#527=FACE_BOUND('',#483,.T.);
#528=FACE_BOUND('',#484,.T.);
#529=FACE_BOUND('',#485,.T.);
#530=FACE_BOUND('',#486,.T.);
#531=FACE_BOUND('',#487,.T.);
#532=FACE_BOUND('',#488,.T.);
#533=FACE_BOUND('',#489,.T.);
#534=FACE_BOUND('',#490,.T.);
#535=FACE_BOUND('',#491,.T.);
#536=FACE_BOUND('',#492,.T.);
#537=FACE_BOUND('',#493,.T.);
#538=FACE_BOUND('',#494,.T.);
#539=FACE_BOUND('',#495,.T.);
#540=FACE_BOUND('',#496,.T.);
#541=FACE_BOUND('',#497,.T.);
#542=FACE_BOUND('',#498,.T.);
#543=FACE_BOUND('',#499,.T.);
#544=FACE_BOUND('',#500,.T.);
#545=FACE_BOUND('',#501,.T.);
#546=FACE_BOUND('',#502,.T.);
#547=FACE_BOUND('',#503,.T.);
#548=FACE_BOUND('',#504,.T.);
#549=FACE_BOUND('',#505,.T.);
#550=FACE_BOUND('',#506,.T.);
#551=FACE_BOUND('',#507,.T.);
#552=FACE_BOUND('',#508,.T.);
#553=FACE_BOUND('',#509,.T.);
#554=FACE_BOUND('',#510,.T.);
#555=FACE_BOUND('',#511,.T.);
#556=FACE_BOUND('',#512,.T.);
#557=FACE_BOUND('',#513,.T.);
#558=FACE_BOUND('',#514,.T.);
#559=FACE_BOUND('',#515,.T.);
#560=FACE_BOUND('',#516,.T.);
#561=FACE_BOUND('',#517,.T.);
#562=FACE_BOUND('',#518,.T.);
#563=FACE_BOUND('',#519,.T.);
#564=FACE_BOUND('',#520,.T.);
#565=FACE_BOUND('',#521,.T.);
#566=FACE_BOUND('',#522,.T.);
#567=FACE_BOUND('',#523,.T.);
#568=FACE_BOUND('',#524,.T.);
#569=FACE_BOUND('',#525,.T.);
#570=PLANE('',#629);
#571=PLANE('',#657);
#572=PLANE('',#658);
#573=PLANE('',#659);
#574=PLANE('',#664);
#575=PLANE('',#669);
#576=PLANE('',#679);
#577=PLANE('',#682);
#578=PLANE('',#690);
#579=PLANE('',#692);
#580=ADVANCED_FACE('',(#526,#527,#528),#570,.F.);
#581=ADVANCED_FACE('',(#529,#530),#94,.F.);
#582=ADVANCED_FACE('',(#531),#95,.T.);
#583=ADVANCED_FACE('',(#532,#533),#96,.F.);
#584=ADVANCED_FACE('',(#534),#97,.T.);
#585=ADVANCED_FACE('',(#535),#98,.T.);
#586=ADVANCED_FACE('',(#536),#99,.F.);
#587=ADVANCED_FACE('',(#537),#100,.T.);
#588=ADVANCED_FACE('',(#538),#101,.F.);
#589=ADVANCED_FACE('',(#539),#571,.F.);
#590=ADVANCED_FACE('',(#540),#572,.F.);
#591=ADVANCED_FACE('',(#541),#573,.F.);
#592=ADVANCED_FACE('',(#542),#574,.F.);
#593=ADVANCED_FACE('',(#543,#544,#545),#575,.F.);
#594=ADVANCED_FACE('',(#546,#547),#102,.F.);
#595=ADVANCED_FACE('',(#548),#576,.F.);
#596=ADVANCED_FACE('',(#549,#550),#103,.F.);
#597=ADVANCED_FACE('',(#551),#104,.T.);
#598=ADVANCED_FACE('',(#552),#577,.F.);
#599=ADVANCED_FACE('',(#553),#105,.T.);
#600=ADVANCED_FACE('',(#554),#106,.F.);
#601=ADVANCED_FACE('',(#555),#107,.T.);
#602=ADVANCED_FACE('',(#556),#108,.T.);
#603=ADVANCED_FACE('',(#557),#578,.F.);
#604=ADVANCED_FACE('',(#558),#109,.T.);
#605=ADVANCED_FACE('',(#559),#579,.T.);
#606=ADVANCED_FACE('',(#560),#12,.F.);
#607=ADVANCED_FACE('',(#561),#13,.F.);
#608=ADVANCED_FACE('',(#562),#14,.F.);
#609=ADVANCED_FACE('',(#563),#15,.F.);
#610=ADVANCED_FACE('',(#564),#16,.F.);
#611=ADVANCED_FACE('',(#565),#17,.F.);
#612=ADVANCED_FACE('',(#566),#18,.F.);
#613=ADVANCED_FACE('',(#567),#19,.F.);
#614=ADVANCED_FACE('',(#568),#20,.F.);
#615=ADVANCED_FACE('',(#569),#21,.F.);
#616=CLOSED_SHELL('',(#580,#581,#582,#583,#584,#585,#586,#587,#588,#589,
#590,#591,#592,#593,#594,#595,#596,#597,#598,#599,#600,#601,#602,#603,#604,
#605,#606,#607,#608,#609,#610,#611,#612,#613,#614,#615));
#617=STYLED_ITEM('',(#618),#625);
#618=PRESENTATION_STYLE_ASSIGNMENT((#619));
#619=SURFACE_STYLE_USAGE(.BOTH.,#620);
#620=SURFACE_SIDE_STYLE('',(#621));
#621=SURFACE_STYLE_FILL_AREA(#622);
#622=FILL_AREA_STYLE('',(#623));
#623=FILL_AREA_STYLE_COLOUR('',#624);
#624=COLOUR_RGB('',1.,0.756862745098039,0.0549019607843137);
#625=MANIFOLD_SOLID_BREP('motor support shield',#616);
#626=SHAPE_DEFINITION_REPRESENTATION(#1218,#627);
#627=SHAPE_REPRESENTATION('motor support shield',(#628),#1213);
#628=AXIS2_PLACEMENT_3D('',#889,#707,#708);
#629=AXIS2_PLACEMENT_3D('',#890,#709,#710);
#630=AXIS2_PLACEMENT_3D('',#891,#711,#712);
#631=AXIS2_PLACEMENT_3D('',#894,#713,#714);
#632=AXIS2_PLACEMENT_3D('',#896,#715,#716);
#633=AXIS2_PLACEMENT_3D('',#898,#717,#718);
#634=AXIS2_PLACEMENT_3D('',#899,#719,#720);
#635=AXIS2_PLACEMENT_3D('',#901,#721,#722);
#636=AXIS2_PLACEMENT_3D('',#903,#723,#724);
#637=AXIS2_PLACEMENT_3D('',#904,#725,#726);
#638=AXIS2_PLACEMENT_3D('',#906,#727,#728);
#639=AXIS2_PLACEMENT_3D('',#929,#731,#732);
#640=AXIS2_PLACEMENT_3D('',#932,#734,#735);
#641=AXIS2_PLACEMENT_3D('',#933,#736,#737);
#642=AXIS2_PLACEMENT_3D('',#935,#738,#739);
#643=AXIS2_PLACEMENT_3D('',#936,#740,#741);
#644=AXIS2_PLACEMENT_3D('',#940,#743,#744);
#645=AXIS2_PLACEMENT_3D('',#944,#746,#747);
#646=AXIS2_PLACEMENT_3D('',#947,#749,#750);
#647=AXIS2_PLACEMENT_3D('',#948,#751,#752);
#648=AXIS2_PLACEMENT_3D('',#971,#755,#756);
#649=AXIS2_PLACEMENT_3D('',#972,#757,#758);
#650=AXIS2_PLACEMENT_3D('',#973,#759,#760);
#651=AXIS2_PLACEMENT_3D('',#977,#762,#763);
#652=AXIS2_PLACEMENT_3D('',#981,#765,#766);
#653=AXIS2_PLACEMENT_3D('',#989,#768,#769);
#654=AXIS2_PLACEMENT_3D('',#990,#770,#771);
#655=AXIS2_PLACEMENT_3D('',#991,#772,#773);
#656=AXIS2_PLACEMENT_3D('',#995,#775,#776);
#657=AXIS2_PLACEMENT_3D('',#996,#777,#778);
#658=AXIS2_PLACEMENT_3D('',#997,#779,#780);
#659=AXIS2_PLACEMENT_3D('',#998,#781,#782);
#660=AXIS2_PLACEMENT_3D('',#999,#783,#784);
#661=AXIS2_PLACEMENT_3D('',#1002,#785,#786);
#662=AXIS2_PLACEMENT_3D('',#1004,#787,#788);
#663=AXIS2_PLACEMENT_3D('',#1006,#789,#790);
#664=AXIS2_PLACEMENT_3D('',#1007,#791,#792);
#665=AXIS2_PLACEMENT_3D('',#1008,#793,#794);
#666=AXIS2_PLACEMENT_3D('',#1011,#795,#796);
#667=AXIS2_PLACEMENT_3D('',#1013,#797,#798);
#668=AXIS2_PLACEMENT_3D('',#1015,#799,#800);
#669=AXIS2_PLACEMENT_3D('',#1016,#801,#802);
#670=AXIS2_PLACEMENT_3D('',#1017,#803,#804);
#671=AXIS2_PLACEMENT_3D('',#1019,#805,#806);
#672=AXIS2_PLACEMENT_3D('',#1023,#808,#809);
#673=AXIS2_PLACEMENT_3D('',#1027,#811,#812);
#674=AXIS2_PLACEMENT_3D('',#1029,#813,#814);
#675=AXIS2_PLACEMENT_3D('',#1031,#815,#816);
#676=AXIS2_PLACEMENT_3D('',#1033,#817,#818);
#677=AXIS2_PLACEMENT_3D('',#1036,#820,#821);
#678=AXIS2_PLACEMENT_3D('',#1039,#823,#824);
#679=AXIS2_PLACEMENT_3D('',#1061,#825,#826);
#680=AXIS2_PLACEMENT_3D('',#1069,#828,#829);
#681=AXIS2_PLACEMENT_3D('',#1091,#830,#831);
#682=AXIS2_PLACEMENT_3D('',#1102,#833,#834);
#683=AXIS2_PLACEMENT_3D('',#1108,#835,#836);
#684=AXIS2_PLACEMENT_3D('',#1128,#838,#839);
#685=AXIS2_PLACEMENT_3D('',#1131,#841,#842);
#686=AXIS2_PLACEMENT_3D('',#1132,#843,#844);
#687=AXIS2_PLACEMENT_3D('',#1152,#846,#847);
#688=AXIS2_PLACEMENT_3D('',#1153,#848,#849);
#689=AXIS2_PLACEMENT_3D('',#1160,#851,#852);
#690=AXIS2_PLACEMENT_3D('',#1161,#853,#854);
#691=AXIS2_PLACEMENT_3D('',#1169,#856,#857);
#692=AXIS2_PLACEMENT_3D('',#1180,#859,#860);
#693=AXIS2_PLACEMENT_3D('',#1186,#861,#862);
#694=AXIS2_PLACEMENT_3D('',#1187,#863,#864);
#695=AXIS2_PLACEMENT_3D('',#1188,#865,#866);
#696=AXIS2_PLACEMENT_3D('',#1189,#867,#868);
#697=AXIS2_PLACEMENT_3D('',#1190,#869,#870);
#698=AXIS2_PLACEMENT_3D('',#1191,#871,#872);
#699=AXIS2_PLACEMENT_3D('',#1192,#873,#874);
#700=AXIS2_PLACEMENT_3D('',#1199,#875,#876);
#701=AXIS2_PLACEMENT_3D('',#1200,#877,#878);
#702=AXIS2_PLACEMENT_3D('',#1201,#879,#880);
#703=AXIS2_PLACEMENT_3D('',#1202,#881,#882);
#704=AXIS2_PLACEMENT_3D('',#1209,#883,#884);
#705=AXIS2_PLACEMENT_3D('',#1210,#885,#886);
#706=AXIS2_PLACEMENT_3D('',#1211,#887,#888);
#707=DIRECTION('',(0.,0.,1.));
#708=DIRECTION('',(1.,0.,0.));
#709=DIRECTION('',(0.,0.,1.));
#710=DIRECTION('',(1.,0.,0.));
#711=DIRECTION('',(0.,0.,1.));
#712=DIRECTION('',(1.,0.,0.));
#713=DIRECTION('',(0.,0.,1.));
#714=DIRECTION('',(1.,0.,0.));
#715=DIRECTION('',(0.,0.,1.));
#716=DIRECTION('',(1.,0.,0.));
#717=DIRECTION('',(0.,0.,1.));
#718=DIRECTION('',(1.,0.,0.));
#719=DIRECTION('',(0.,0.,1.));
#720=DIRECTION('',(1.,0.,0.));
#721=DIRECTION('',(0.,0.,1.));
#722=DIRECTION('',(1.,0.,0.));
#723=DIRECTION('',(0.,0.,-1.));
#724=DIRECTION('',(-1.,0.,0.));
#725=DIRECTION('',(0.,0.,-1.));
#726=DIRECTION('',(-1.,0.,0.));
#727=DIRECTION('',(0.,0.,-1.));
#728=DIRECTION('',(-1.,0.,0.));
#729=DIRECTION('',(0.,0.,-1.));
#730=DIRECTION('',(0.,0.,-1.));
#731=DIRECTION('',(0.,0.,1.));
#732=DIRECTION('',(1.,0.,0.));
#733=DIRECTION('',(0.,0.,-1.));
#734=DIRECTION('',(0.,0.,-1.));
#735=DIRECTION('',(-1.,0.,0.));
#736=DIRECTION('',(0.,0.,-1.));
#737=DIRECTION('',(-1.,0.,0.));
#738=DIRECTION('',(0.,0.,-1.));
#739=DIRECTION('',(-1.,0.,0.));
#740=DIRECTION('',(0.,0.,1.));
#741=DIRECTION('',(1.,0.,0.));
#742=DIRECTION('',(0.,0.,-1.));
#743=DIRECTION('',(0.,0.,-1.));
#744=DIRECTION('',(-1.,0.,0.));
#745=DIRECTION('',(0.,0.,-1.));
#746=DIRECTION('',(0.,0.,1.));
#747=DIRECTION('',(1.,0.,0.));
#748=DIRECTION('',(0.,0.,-1.));
#749=DIRECTION('',(0.,0.,-1.));
#750=DIRECTION('',(-1.,0.,0.));
#751=DIRECTION('',(0.,0.,1.));
#752=DIRECTION('',(1.,0.,0.));
#753=DIRECTION('',(0.,0.,-1.));
#754=DIRECTION('',(0.,0.,-1.));
#755=DIRECTION('',(0.,0.,-1.));
#756=DIRECTION('',(-1.,0.,0.));
#757=DIRECTION('',(0.,0.,-1.));
#758=DIRECTION('',(-1.,0.,0.));
#759=DIRECTION('',(0.,0.,-1.));
#760=DIRECTION('',(-1.,0.,0.));
#761=DIRECTION('',(0.,0.,-1.));
#762=DIRECTION('',(0.,0.,1.));
#763=DIRECTION('',(1.,0.,0.));
#764=DIRECTION('',(0.,0.,-1.));
#765=DIRECTION('',(0.,0.,-1.));
#766=DIRECTION('',(-1.,0.,0.));
#767=DIRECTION('',(0.,0.,-1.));
#768=DIRECTION('',(0.,0.,-1.));
#769=DIRECTION('',(-1.,0.,0.));
#770=DIRECTION('',(0.,0.,-1.));
#771=DIRECTION('',(-1.,0.,0.));
#772=DIRECTION('',(0.,0.,1.));
#773=DIRECTION('',(1.,0.,0.));
#774=DIRECTION('',(0.,0.,-1.));
#775=DIRECTION('',(0.,0.,-1.));
#776=DIRECTION('',(-1.,0.,0.));
#777=DIRECTION('',(0.,0.,1.));
#778=DIRECTION('',(1.,0.,0.));
#779=DIRECTION('',(0.,0.,1.));
#780=DIRECTION('',(1.,0.,0.));
#781=DIRECTION('',(0.,0.,1.));
#782=DIRECTION('',(1.,0.,0.));
#783=DIRECTION('',(0.,0.,1.));
#784=DIRECTION('',(1.,0.,0.));
#785=DIRECTION('',(0.,0.,1.));
#786=DIRECTION('',(1.,0.,0.));
#787=DIRECTION('',(0.,0.,1.));
#788=DIRECTION('',(1.,0.,0.));
#789=DIRECTION('',(0.,0.,1.));
#790=DIRECTION('',(1.,0.,0.));
#791=DIRECTION('',(0.,0.,1.));
#792=DIRECTION('',(1.,0.,0.));
#793=DIRECTION('',(0.,0.,1.));
#794=DIRECTION('',(1.,0.,0.));
#795=DIRECTION('',(0.,0.,1.));
#796=DIRECTION('',(1.,0.,0.));
#797=DIRECTION('',(0.,0.,1.));
#798=DIRECTION('',(1.,0.,0.));
#799=DIRECTION('',(0.,0.,1.));
#800=DIRECTION('',(1.,0.,0.));
#801=DIRECTION('',(0.,0.,-1.));
#802=DIRECTION('',(-1.,0.,0.));
#803=DIRECTION('',(0.,0.,-1.));
#804=DIRECTION('',(-1.,0.,0.));
#805=DIRECTION('',(0.,0.,-1.));
#806=DIRECTION('',(-1.,0.,0.));
#807=DIRECTION('',(-1.37490716814227E-16,1.,0.));
#808=DIRECTION('',(0.,0.,-1.));
#809=DIRECTION('',(-1.,0.,0.));
#810=DIRECTION('',(-7.40714083673272E-17,1.,0.));
#811=DIRECTION('',(0.,0.,-1.));
#812=DIRECTION('',(-1.,0.,0.));
#813=DIRECTION('',(0.,0.,-1.));
#814=DIRECTION('',(-1.,0.,0.));
#815=DIRECTION('',(0.,0.,-1.));
#816=DIRECTION('',(-1.,0.,0.));
#817=DIRECTION('',(0.,0.,-1.));
#818=DIRECTION('',(-1.,0.,0.));
#819=DIRECTION('',(-1.,0.,0.));
#820=DIRECTION('',(0.,0.,-1.));
#821=DIRECTION('',(-1.,0.,0.));
#822=DIRECTION('',(1.,1.37490716814227E-16,0.));
#823=DIRECTION('',(0.,0.,-1.));
#824=DIRECTION('',(-1.,0.,0.));
#825=DIRECTION('',(1.37490716814227E-16,-1.,0.));
#826=DIRECTION('',(1.,1.37490716814227E-16,0.));
#827=DIRECTION('',(0.,0.,-1.));
#828=DIRECTION('',(0.,0.,-1.));
#829=DIRECTION('',(-1.,0.,0.));
#830=DIRECTION('',(0.,0.,-1.));
#831=DIRECTION('',(-1.,0.,0.));
#832=DIRECTION('',(0.,0.,-1.));
#833=DIRECTION('',(0.,1.,0.));
#834=DIRECTION('',(0.,0.,1.));
#835=DIRECTION('',(0.,0.,-1.));
#836=DIRECTION('',(-1.,0.,0.));
#837=DIRECTION('',(0.,0.,-1.));
#838=DIRECTION('',(0.,0.,-1.));
#839=DIRECTION('',(-1.,0.,0.));
#840=DIRECTION('',(0.,0.,-1.));
#841=DIRECTION('',(0.,0.,1.));
#842=DIRECTION('',(1.,0.,0.));
#843=DIRECTION('',(0.,0.,-1.));
#844=DIRECTION('',(-1.,0.,0.));
#845=DIRECTION('',(0.,0.,-1.));
#846=DIRECTION('',(0.,0.,-1.));
#847=DIRECTION('',(-1.,0.,0.));
#848=DIRECTION('',(0.,0.,1.));
#849=DIRECTION('',(1.,0.,0.));
#850=DIRECTION('',(0.,0.,-1.));
#851=DIRECTION('',(0.,0.,-1.));
#852=DIRECTION('',(-1.,0.,0.));
#853=DIRECTION('',(1.,7.40714083673272E-17,0.));
#854=DIRECTION('',(-7.40714083673272E-17,1.,0.));
#855=DIRECTION('',(0.,0.,-1.));
#856=DIRECTION('',(0.,0.,-1.));
#857=DIRECTION('',(-1.,0.,0.));
#858=DIRECTION('',(0.,0.,-1.));
#859=DIRECTION('',(1.,1.37490716814227E-16,0.));
#860=DIRECTION('',(-1.37490716814227E-16,1.,0.));
#861=DIRECTION('',(0.,0.,1.));
#862=DIRECTION('',(1.,0.,0.));
#863=DIRECTION('',(-1.,-1.48558237586799E-15,0.));
#864=DIRECTION('',(1.48558237586799E-15,-1.,0.));
#865=DIRECTION('',(0.,0.,1.));
#866=DIRECTION('',(1.,0.,0.));
#867=DIRECTION('',(0.,0.,1.));
#868=DIRECTION('',(1.,0.,0.));
#869=DIRECTION('',(1.6388511476267E-15,-1.,0.));
#870=DIRECTION('',(1.,1.6388511476267E-15,0.));
#871=DIRECTION('',(0.,0.,1.));
#872=DIRECTION('',(1.,0.,0.));
#873=DIRECTION('',(0.,0.,1.));
#874=DIRECTION('',(1.,0.,0.));
#875=DIRECTION('',(0.,0.,1.));
#876=DIRECTION('',(1.,0.,0.));
#877=DIRECTION('',(0.999807747763291,0.019607843137255,0.));
#878=DIRECTION('',(-0.019607843137255,0.999807747763291,0.));
#879=DIRECTION('',(0.,0.,1.));
#880=DIRECTION('',(1.,0.,0.));
#881=DIRECTION('',(0.,0.,-1.));
#882=DIRECTION('',(-1.,0.,0.));
#883=DIRECTION('',(0.,0.,-1.));
#884=DIRECTION('',(-1.,0.,0.));
#885=DIRECTION('',(0.999807747763291,0.019607843137255,0.));
#886=DIRECTION('',(-0.019607843137255,0.999807747763291,0.));
#887=DIRECTION('',(0.,0.,-1.));
#888=DIRECTION('',(-1.,0.,0.));
#889=CARTESIAN_POINT('',(0.,0.,0.));
#890=CARTESIAN_POINT('',(0.,0.,0.024));
#891=CARTESIAN_POINT('',(-4.03477241376075E-18,-6.43080516127712E-18,0.024));
#892=CARTESIAN_POINT('',(0.0216,-1.54074395550979E-33,0.024));
#893=CARTESIAN_POINT('',(6.76472739417455E-19,0.0216,0.024));
#894=CARTESIAN_POINT('',(6.56021264078882E-18,0.025,0.024));
#895=CARTESIAN_POINT('',(1.50923256283765E-18,0.0284,0.024));
#896=CARTESIAN_POINT('',(3.03576608295941E-18,-6.50521303491303E-19,0.024));
#897=CARTESIAN_POINT('',(0.0284,-5.20417042793042E-18,0.024));
#898=CARTESIAN_POINT('',(0.025,-1.07762643298612E-17,0.024));
#899=CARTESIAN_POINT('',(1.3010426069826E-18,0.025,0.024));
#900=CARTESIAN_POINT('',(0.0021,0.025,0.024));
#901=CARTESIAN_POINT('',(0.025,-5.20417042793042E-18,0.024));
#902=CARTESIAN_POINT('',(0.0271,-5.20417042793042E-18,0.024));
#903=CARTESIAN_POINT('',(0.025,-5.20417042793042E-18,0.051002));
#904=CARTESIAN_POINT('',(0.025,-5.20417042793042E-18,0.051));
#905=CARTESIAN_POINT('',(0.0229,-5.20417042793042E-18,0.051));
#906=CARTESIAN_POINT('',(6.56021264078882E-18,0.025,0.051002));
#907=CARTESIAN_POINT('',(6.76472739417455E-19,0.0216,0.051002));
#908=CARTESIAN_POINT('',(6.76472739417455E-19,0.0216,0.05));
#909=CARTESIAN_POINT('',(5.9924170116492E-18,0.0216,0.05));
#910=CARTESIAN_POINT('',(-0.00014271090742462,0.0216,0.05));
#911=CARTESIAN_POINT('',(-0.000284078295605485,0.0216089493466488,0.0499998464484415));
#912=CARTESIAN_POINT('',(-0.000424131693120212,0.0216265577955313,0.0500004718583771));
#913=CARTESIAN_POINT('',(-0.000424131693120214,0.0216265577955312,0.050000471858377));
#914=CARTESIAN_POINT('',(-0.000424131693120214,0.0216265577955312,0.050000471858377));
#915=CARTESIAN_POINT('',(-0.000874273047443931,0.0216831525741523,0.0500024819693805));
#916=CARTESIAN_POINT('',(-0.00152523924014889,0.0219037651944893,0.0500156426090244));
#917=CARTESIAN_POINT('',(-0.00225506914404121,0.0224259523782254,0.0500732903044097));
#918=CARTESIAN_POINT('',(-0.00271708303748386,0.0229194386551996,0.0501424761648904));
#919=CARTESIAN_POINT('',(-0.00307031002350996,0.0234896933956894,0.0502430634585867));
#920=CARTESIAN_POINT('',(-0.00326381130529535,0.0240053612551079,0.0503587232148108));
#921=CARTESIAN_POINT('',(-0.00335695486728563,0.0244280721682896,0.0504785746096191));
#922=CARTESIAN_POINT('',(-0.00339539013856573,0.0247509519419675,0.0505905587374608));
#923=CARTESIAN_POINT('',(-0.00340483416544363,0.0250488677538457,0.0507269584469987));
#924=CARTESIAN_POINT('',(-0.00339024242606058,0.0252574029769439,0.0508853402292966));
#925=CARTESIAN_POINT('',(-0.00339024242606058,0.0252574029769439,0.051));
#926=CARTESIAN_POINT('',(-0.00339024242606047,0.025257402976944,0.051));
#927=CARTESIAN_POINT('',(-0.00339024242606047,0.025257402976944,0.084502));
#928=CARTESIAN_POINT('',(-0.00339024242606047,0.025257402976944,0.0805));
#929=CARTESIAN_POINT('',(6.56021264078882E-18,0.025,0.0805));
#930=CARTESIAN_POINT('',(1.50923256283765E-18,0.0284,0.0805));
#931=CARTESIAN_POINT('',(1.50923256283765E-18,0.0284,0.051002));
#932=CARTESIAN_POINT('',(1.3010426069826E-18,0.025,0.051002));
#933=CARTESIAN_POINT('',(1.3010426069826E-18,0.025,0.051));
#934=CARTESIAN_POINT('',(-0.0021,0.025,0.051));
#935=CARTESIAN_POINT('',(3.03576608295941E-18,-6.50521303491303E-19,0.051002));
#936=CARTESIAN_POINT('',(3.03576608295941E-18,-6.50521303491303E-19,0.0805));
#937=CARTESIAN_POINT('',(0.0034,0.0281957443597433,0.0805));
#938=CARTESIAN_POINT('',(0.0034,0.0281957443597433,0.089502));
#939=CARTESIAN_POINT('',(0.0034,0.0281957443597433,0.0895));
#940=CARTESIAN_POINT('',(3.03576608295941E-18,-6.50521303491303E-19,0.0895));
#941=CARTESIAN_POINT('',(0.0281957443597433,0.0034,0.0895));
#942=CARTESIAN_POINT('',(0.0281957443597433,0.0034,0.089502));
#943=CARTESIAN_POINT('',(0.0281957443597433,0.0034,0.0805));
#944=CARTESIAN_POINT('',(3.03576608295941E-18,-6.50521303491303E-19,0.0805));
#945=CARTESIAN_POINT('',(0.0284,-5.20417042793042E-18,0.0805));
#946=CARTESIAN_POINT('',(0.0284,-5.20417042793042E-18,0.051002));
#947=CARTESIAN_POINT('',(0.025,-1.07762643298612E-17,0.051002));
#948=CARTESIAN_POINT('',(0.025,-1.07762643298612E-17,0.0805));
#949=CARTESIAN_POINT('',(0.0252572360820276,-0.00339025509336733,0.0805));
#950=CARTESIAN_POINT('',(0.0252572360820276,-0.00339025509336733,0.084502));
#951=CARTESIAN_POINT('',(0.0252572360820276,-0.00339025509336733,0.051));
#952=CARTESIAN_POINT('',(0.0252572360820276,-0.00339025509336733,0.051));
#953=CARTESIAN_POINT('',(0.0252572360820276,-0.00339025509336733,0.050885147274623));
#954=CARTESIAN_POINT('',(0.0250509774608388,-0.00340465309102558,0.0507290518920153));
#955=CARTESIAN_POINT('',(0.0247577981181831,-0.00339578895042258,0.0505934504710441));
#956=CARTESIAN_POINT('',(0.0244378613849468,-0.00335843628180796,0.0504819402543862));
#957=CARTESIAN_POINT('',(0.0240221818142627,-0.00326862751921775,0.0503632077443756));
#958=CARTESIAN_POINT('',(0.0235047781637986,-0.00307734431739615,0.0502463162890933));
#959=CARTESIAN_POINT('',(0.0229427449629227,-0.00273388034537194,0.0501464751009007));
#960=CARTESIAN_POINT('',(0.022448687695263,-0.00228040797130699,0.050076324738365));
#961=CARTESIAN_POINT('',(0.0219234051065244,-0.00156209599166257,0.0500174987257808));
#962=CARTESIAN_POINT('',(0.0216970084248715,-0.000922939373462349,0.0500033531976752));
#963=CARTESIAN_POINT('',(0.0216338308933037,-0.000478440743586212,0.0500007724310398));
#964=CARTESIAN_POINT('',(0.0216338308995044,-0.000478440787212821,0.0500007655078619));
#965=CARTESIAN_POINT('',(0.0216338308995044,-0.000478440787212821,0.0500007655078619));
#966=CARTESIAN_POINT('',(0.0216112771387336,-0.000319759139167809,0.0499997453705143));
#967=CARTESIAN_POINT('',(0.0216,-0.000160278073261382,0.05));
#968=CARTESIAN_POINT('',(0.0216,2.30463327051556E-19,0.05));
#969=CARTESIAN_POINT('',(0.0216,-1.54074395550979E-33,0.05));
#970=CARTESIAN_POINT('',(0.0216,-1.54074395550979E-33,0.051002));
#971=CARTESIAN_POINT('',(-4.03477241376075E-18,-6.43080516127712E-18,0.051002));
#972=CARTESIAN_POINT('',(-4.03477241376075E-18,-6.43080516127712E-18,0.05));
#973=CARTESIAN_POINT('',(0.0254947894836972,-0.000499685816360756,0.084502));
#974=CARTESIAN_POINT('',(0.0252572360820276,-0.00339025509336733,0.089502));
#975=CARTESIAN_POINT('',(0.0252572360820276,-0.00339025509336733,0.0895));
#976=CARTESIAN_POINT('',(0.0252572360820276,-0.00339025509336733,0.0845));
#977=CARTESIAN_POINT('',(0.0254947894836972,-0.000499685816360756,0.0845));
#978=CARTESIAN_POINT('',(0.0225944753000579,-0.00049968581636075,0.0845));
#979=CARTESIAN_POINT('',(0.0225944753000579,-0.00049968581636075,0.084502));
#980=CARTESIAN_POINT('',(0.0225944753000579,-0.00049968581636075,0.051));
#981=CARTESIAN_POINT('',(0.0254947894836972,-0.000499685816360756,0.051));
#982=CARTESIAN_POINT('',(0.0252572360820276,-0.00339025509336733,0.0805));
#983=CARTESIAN_POINT('',(0.0252572360820276,-0.00339025509336733,0.0807215415639353));
#984=CARTESIAN_POINT('',(0.0253534143241707,-0.0034,0.0809281874140216));
#985=CARTESIAN_POINT('',(0.0254947894836972,-0.0034,0.0810973739281161));
#986=CARTESIAN_POINT('',(0.0254947894836972,-0.0034,0.0810973739281161));
#987=CARTESIAN_POINT('',(0.0254947894836972,-0.0034,0.089502));
#988=CARTESIAN_POINT('',(0.0254947894836972,-0.0034,0.0895));
#989=CARTESIAN_POINT('',(0.0254947894836972,-0.000499685816360913,0.0895));
#990=CARTESIAN_POINT('',(2.38524477946811E-18,0.,0.084502));
#991=CARTESIAN_POINT('',(2.38524477946811E-18,0.,0.0845));
#992=CARTESIAN_POINT('',(-0.000443137254901959,0.0225956550994504,0.0845));
#993=CARTESIAN_POINT('',(-0.000443137254901959,0.0225956550994504,0.084502));
#994=CARTESIAN_POINT('',(-0.000443137254901959,0.0225956550994504,0.051));
#995=CARTESIAN_POINT('',(2.38524477946811E-18,0.,0.051));
#996=CARTESIAN_POINT('',(0.,0.,0.051));
#997=CARTESIAN_POINT('',(0.,0.,0.051));
#998=CARTESIAN_POINT('',(0.,0.,0.0855));
#999=CARTESIAN_POINT('',(0.03135,1.13751843266999E-19,0.0855));
#1000=CARTESIAN_POINT('',(0.0333836614173229,-0.000523661378843708,0.0855));
#1001=CARTESIAN_POINT('',(0.0333966905901116,0.000470167659828345,0.0855));
#1002=CARTESIAN_POINT('',(3.03576608295941E-18,-6.50521303491303E-19,0.0855));
#1003=CARTESIAN_POINT('',(0.0332826555023924,0.0027972920314248,0.0855));
#1004=CARTESIAN_POINT('',(0.03135,0.,0.0855));
#1005=CARTESIAN_POINT('',(0.0328206692913386,-0.00306547416161248,0.0855));
#1006=CARTESIAN_POINT('',(0.025,-1.07762643298612E-17,0.0855));
#1007=CARTESIAN_POINT('',(0.,0.,0.0855));
#1008=CARTESIAN_POINT('',(1.3010426069826E-18,0.03135,0.0855));
#1009=CARTESIAN_POINT('',(0.00279729203142479,0.0332826555023924,0.0855));
#1010=CARTESIAN_POINT('',(-0.00306547416161247,0.0328206692913386,0.0855));
#1011=CARTESIAN_POINT('',(3.03576608295941E-18,-6.50521303491303E-19,0.0855));
#1012=CARTESIAN_POINT('',(0.000470167659828348,0.0333966905901116,0.0855));
#1013=CARTESIAN_POINT('',(1.3010426069826E-18,0.03135,0.0855));
#1014=CARTESIAN_POINT('',(-0.000523661378843687,0.0333836614173229,0.0855));
#1015=CARTESIAN_POINT('',(6.56021264078882E-18,0.025,0.0855));
#1016=CARTESIAN_POINT('',(0.01475,0.,0.0895));
#1017=CARTESIAN_POINT('',(1.3010426069826E-18,0.03135,0.0895));
#1018=CARTESIAN_POINT('',(-0.0021,0.03135,0.0895));
#1019=CARTESIAN_POINT('',(0.03135,1.13751843266999E-19,0.0895));
#1020=CARTESIAN_POINT('',(0.02925,1.13751843266999E-19,0.0895));
#1021=CARTESIAN_POINT('',(0.0034,0.0297728721798717,0.0895));
#1022=CARTESIAN_POINT('',(0.0034,0.03135,0.0895));
#1023=CARTESIAN_POINT('',(1.3010426069826E-18,0.03135,0.0895));
#1024=CARTESIAN_POINT('',(-0.0034,0.03135,0.0895));
#1025=CARTESIAN_POINT('',(-0.0034,0.028422548783982,0.0895));
#1026=CARTESIAN_POINT('',(-0.0034,0.025495097567964,0.0895));
#1027=CARTESIAN_POINT('',(-0.000500000000000268,0.025495097567964,0.0895));
#1028=CARTESIAN_POINT('',(-0.00339024242606047,0.025257402976944,0.0895));
#1029=CARTESIAN_POINT('',(-2.33320307518881E-16,0.025,0.0895));
#1030=CARTESIAN_POINT('',(6.76472739417455E-19,0.0216,0.0895));
#1031=CARTESIAN_POINT('',(-4.03477241376075E-18,-6.43080516127712E-18,0.0895));
#1032=CARTESIAN_POINT('',(0.0216,-1.54074395550979E-33,0.0895));
#1033=CARTESIAN_POINT('',(0.025,-1.07762643298612E-17,0.0895));
#1034=CARTESIAN_POINT('',(0.0284223947418486,-0.0034,0.0895));
#1035=CARTESIAN_POINT('',(0.03135,-0.0034,0.0895));
#1036=CARTESIAN_POINT('',(0.03135,0.,0.0895));
#1037=CARTESIAN_POINT('',(0.03135,0.0034,0.0895));
#1038=CARTESIAN_POINT('',(0.0297728721798717,0.0034,0.0895));
#1039=CARTESIAN_POINT('',(0.03135,1.13751843266999E-19,0.089502));
#1040=CARTESIAN_POINT('',(0.0333836614173229,-0.000523661378843708,0.0855));
#1041=CARTESIAN_POINT('',(0.0332441043993683,-0.00106563704173782,0.0855));
#1042=CARTESIAN_POINT('',(0.032699695467153,-0.00177335515099563,0.085503978983399));
#1043=CARTESIAN_POINT('',(0.0316409723561217,-0.00213249214704644,0.0853126805876614));
#1044=CARTESIAN_POINT('',(0.0308465902150732,-0.00208540352350412,0.0850201588581975));
#1045=CARTESIAN_POINT('',(0.0301819668691081,-0.00178981866104091,0.0845876263513623));
#1046=CARTESIAN_POINT('',(0.0296958953995861,-0.0013438025118083,0.0840780794599914));
#1047=CARTESIAN_POINT('',(0.0293634191803529,-0.000790279379560549,0.0835485965805551));
#1048=CARTESIAN_POINT('',(0.02925,-0.000280795268640141,0.0832888169534769));
#1049=CARTESIAN_POINT('',(0.02925,-9.97629047294508E-18,0.0832888169534769));
#1050=CARTESIAN_POINT('',(0.02925,-3.81114608799554E-18,0.0832888169534768));
#1051=CARTESIAN_POINT('',(0.02925,-3.81114608799555E-18,0.0832888169534768));
#1052=CARTESIAN_POINT('',(0.02925,0.000282530322959525,0.0832888169534768));
#1053=CARTESIAN_POINT('',(0.0293672446348255,0.000814002843775172,0.0834816198646708));
#1054=CARTESIAN_POINT('',(0.0297379978328055,0.00139961172809297,0.0839611256250775));
#1055=CARTESIAN_POINT('',(0.0302556898844882,0.00183575989487768,0.0844570514817304));
#1056=CARTESIAN_POINT('',(0.0309191838850473,0.00209906653235237,0.0849078335991918));
#1057=CARTESIAN_POINT('',(0.0316930771027578,0.00212260315907079,0.0852494380065883));
#1058=CARTESIAN_POINT('',(0.0327367061598938,0.00174549615465122,0.085502549387848));
#1059=CARTESIAN_POINT('',(0.0332717860522117,0.00101389060001401,0.0855000000000004));
#1060=CARTESIAN_POINT('',(0.0333966905901117,0.000470167659828346,0.0855000000000004));
#1061=CARTESIAN_POINT('',(0.0297728721798717,0.0034,0.089502));
#1062=CARTESIAN_POINT('',(0.03135,0.0034,0.089502));
#1063=CARTESIAN_POINT('',(0.03135,0.0034,0.0851386866039025));
#1064=CARTESIAN_POINT('',(0.03135,0.0034,0.0851386866039025));
#1065=CARTESIAN_POINT('',(0.0304206123257324,0.0034,0.0847669685565559));
#1066=CARTESIAN_POINT('',(0.0288193291069707,0.0034,0.0834789901325837));
#1067=CARTESIAN_POINT('',(0.0281957443597433,0.0034,0.0815011287301009));
#1068=CARTESIAN_POINT('',(0.0281957443597433,0.0034,0.0805));
#1069=CARTESIAN_POINT('',(1.3010426069826E-18,0.03135,0.089502));
#1070=CARTESIAN_POINT('',(0.000470167659828348,0.0333966905901116,0.0855));
#1071=CARTESIAN_POINT('',(0.00101716950172324,0.0332710328198712,0.0855));
#1072=CARTESIAN_POINT('',(0.00174108050792463,0.0327404612205089,0.0855026733388177));
#1073=CARTESIAN_POINT('',(0.00212229599731215,0.0316977590753733,0.0852511197234888));
#1074=CARTESIAN_POINT('',(0.00209962321970328,0.0309207358000226,0.0849088853630491));
#1075=CARTESIAN_POINT('',(0.00183613144483735,0.030256267034232,0.0844574821952635));
#1076=CARTESIAN_POINT('',(0.00140039905076701,0.0297389191715076,0.0839621867895217));
#1077=CARTESIAN_POINT('',(0.000815125034251479,0.0293670047303167,0.0834813496108294));
#1078=CARTESIAN_POINT('',(0.000279523354896554,0.0292500000000001,0.0832888169534771));
#1079=CARTESIAN_POINT('',(6.26550713173269E-16,0.02925,0.083288816953477));
#1080=CARTESIAN_POINT('',(6.45095925839024E-16,0.02925,0.0832888169534768));
#1081=CARTESIAN_POINT('',(3.2327973491756E-16,0.02925,0.0832888169534768));
#1082=CARTESIAN_POINT('',(-0.000282062794928271,0.02925,0.0832888169534767));
#1083=CARTESIAN_POINT('',(-0.000790415386608298,0.0293638340582414,0.0835492199747956));
#1084=CARTESIAN_POINT('',(-0.00134256308262135,0.0296948819090457,0.084076700380537));
#1085=CARTESIAN_POINT('',(-0.00178930367608024,0.0301812633844938,0.0845870185129186));
#1086=CARTESIAN_POINT('',(-0.00208445523719853,0.0308438366975979,0.0850185662823256));
#1087=CARTESIAN_POINT('',(-0.00213288053414857,0.0316361104266494,0.0853114142716273));
#1088=CARTESIAN_POINT('',(-0.00177703246333288,0.0326976920958024,0.0855041374901831));
#1089=CARTESIAN_POINT('',(-0.00105947511648099,0.0332456910756207,0.0855));
#1090=CARTESIAN_POINT('',(-0.000523661378843685,0.0333836614173228,0.0855));
#1091=CARTESIAN_POINT('',(0.03135,0.,0.089502));
#1092=CARTESIAN_POINT('',(0.03135,-0.0034,0.089502));
#1093=CARTESIAN_POINT('',(0.03135,-0.0034,0.085354592997875));
#1094=CARTESIAN_POINT('',(0.03135,-0.0034,0.085354592997875));
#1095=CARTESIAN_POINT('',(0.0318524698399978,-0.0034,0.0854638206147257));
#1096=CARTESIAN_POINT('',(0.0323573328275822,-0.00328776104869085,0.0855));
#1097=CARTESIAN_POINT('',(0.0328206692913386,-0.00306547416161248,0.0855));
#1098=CARTESIAN_POINT('',(0.0332826555023924,0.0027972920314248,0.0855));
#1099=CARTESIAN_POINT('',(0.0327008191848495,0.00319928408229338,0.0855));
#1100=CARTESIAN_POINT('',(0.0320067839239482,0.0034,0.0854013740103511));
#1101=CARTESIAN_POINT('',(0.03135,0.0034,0.0851386866039025));
#1102=CARTESIAN_POINT('',(0.0284223947418486,-0.0034,0.089502));
#1103=CARTESIAN_POINT('',(0.0254947894836972,-0.0034,0.0810973739281161));
#1104=CARTESIAN_POINT('',(0.0262838313134033,-0.0034,0.0820416362517789));
#1105=CARTESIAN_POINT('',(0.0279214337895714,-0.0034,0.0838809021817276));
#1106=CARTESIAN_POINT('',(0.0301345131173106,-0.0034,0.0850903687102839));
#1107=CARTESIAN_POINT('',(0.03135,-0.0034,0.085354592997875));
#1108=CARTESIAN_POINT('',(0.025,-1.07762643298612E-17,0.089502));
#1109=CARTESIAN_POINT('',(0.0216,-1.54074395550979E-33,0.089502));
#1110=CARTESIAN_POINT('',(0.0216,-1.54074395550979E-33,0.0855));
#1111=CARTESIAN_POINT('',(0.0216,-9.31069238100007E-18,0.0855));
#1112=CARTESIAN_POINT('',(0.0216,-0.00016027807183132,0.0855));
#1113=CARTESIAN_POINT('',(0.0216112771385333,-0.000319759136328923,0.0855002546294765));
#1114=CARTESIAN_POINT('',(0.0216338308989037,-0.00047844078298651,0.0854992344921651));
#1115=CARTESIAN_POINT('',(0.0216338308989037,-0.00047844078298651,0.0854992344921651));
#1116=CARTESIAN_POINT('',(0.0216338308989037,-0.00047844078298651,0.0854992344921651));
#1117=CARTESIAN_POINT('',(0.0216970294517035,-0.00092308727474376,0.0854966528845151));
#1118=CARTESIAN_POINT('',(0.02192453301681,-0.00156426576172403,0.085482405973674));
#1119=CARTESIAN_POINT('',(0.0224490163479673,-0.00228048744744193,0.0854236083565741));
#1120=CARTESIAN_POINT('',(0.0229420279604172,-0.00273362147609241,0.0853536845101003));
#1121=CARTESIAN_POINT('',(0.0235078644938167,-0.00307871239999777,0.0852530240354346));
#1122=CARTESIAN_POINT('',(0.0240201972973121,-0.00326800166379143,0.0851372886770749));
#1123=CARTESIAN_POINT('',(0.024437578563096,-0.00335842768108156,0.085018159477512));
#1124=CARTESIAN_POINT('',(0.02475788814968,-0.00339585988090904,0.0849065774062203));
#1125=CARTESIAN_POINT('',(0.025053782683729,-0.00340458743711902,0.0847695701627985));
#1126=CARTESIAN_POINT('',(0.0252572360820276,-0.00339025509336733,0.0846138749809564));
#1127=CARTESIAN_POINT('',(0.0252572360820276,-0.00339025509336733,0.0845));
#1128=CARTESIAN_POINT('',(-4.03477241376075E-18,-6.43080516127712E-18,0.089502));
#1129=CARTESIAN_POINT('',(6.76472739417455E-19,0.0216,0.089502));
#1130=CARTESIAN_POINT('',(6.76472739417455E-19,0.0216,0.0855));
#1131=CARTESIAN_POINT('',(-4.03477241376075E-18,-6.43080516127712E-18,0.0855));
#1132=CARTESIAN_POINT('',(-2.33320307518881E-16,0.025,0.089502));
#1133=CARTESIAN_POINT('',(-0.00339024242606047,0.025257402976944,0.089502));
#1134=CARTESIAN_POINT('',(-0.00339024242606047,0.025257402976944,0.0845));
#1135=CARTESIAN_POINT('',(-0.000424131693120219,0.0216265577955315,0.0854995281416228));
#1136=CARTESIAN_POINT('',(-0.000874273047443898,0.0216831525741525,0.0854975180306193));
#1137=CARTESIAN_POINT('',(-0.00152523924014886,0.0219037651944894,0.0854843573909756));
#1138=CARTESIAN_POINT('',(-0.00225506914404112,0.0224259523782254,0.0854267096955903));
#1139=CARTESIAN_POINT('',(-0.0027170830374838,0.0229194386551996,0.0853575238351096));
#1140=CARTESIAN_POINT('',(-0.00307031002350991,0.0234896933956893,0.0852569365414132));
#1141=CARTESIAN_POINT('',(-0.00326381130529531,0.0240053612551078,0.0851412767851892));
#1142=CARTESIAN_POINT('',(-0.00335695486728561,0.0244280721682894,0.0850214253903809));
#1143=CARTESIAN_POINT('',(-0.00339539013856573,0.0247509519419674,0.0849094412625393));
#1144=CARTESIAN_POINT('',(-0.00340483416544363,0.0250488677538456,0.0847730415530013));
#1145=CARTESIAN_POINT('',(-0.00339024242606058,0.0252574029769439,0.0846146597707035));
#1146=CARTESIAN_POINT('',(-0.00339024242606058,0.0252574029769439,0.0845));
#1147=CARTESIAN_POINT('',(-0.000424131693120219,0.0216265577955315,0.0854995281416228));
#1148=CARTESIAN_POINT('',(-2.01264352406308E-16,0.0216000000000003,0.0855));
#1149=CARTESIAN_POINT('',(-0.000142710907424683,0.0216000000000003,0.0855));
#1150=CARTESIAN_POINT('',(-0.000284078295605639,0.0216089493466491,0.0855001535515585));
#1151=CARTESIAN_POINT('',(-0.000424131693120226,0.0216265577955315,0.0854995281416229));
#1152=CARTESIAN_POINT('',(-0.000500000000000268,0.025495097567964,0.089502));
#1153=CARTESIAN_POINT('',(-0.000500000000000268,0.025495097567964,0.0845));
#1154=CARTESIAN_POINT('',(-0.0034,0.025495097567964,0.089502));
#1155=CARTESIAN_POINT('',(-0.0034,0.025495097567964,0.0810977426157721));
#1156=CARTESIAN_POINT('',(-0.0034,0.025495097567964,0.0810977426157721));
#1157=CARTESIAN_POINT('',(-0.0034,0.025353965241369,0.0809288494719233));
#1158=CARTESIAN_POINT('',(-0.00339024242606055,0.0252574029769441,0.0807209633939901));
#1159=CARTESIAN_POINT('',(-0.00339024242606055,0.0252574029769441,0.0805));
#1160=CARTESIAN_POINT('',(-0.000500000000000268,0.025495097567964,0.051));
#1161=CARTESIAN_POINT('',(-0.0034,0.028422548783982,0.089502));
#1162=CARTESIAN_POINT('',(-0.0034,0.03135,0.089502));
#1163=CARTESIAN_POINT('',(-0.0034,0.03135,0.085354592997875));
#1164=CARTESIAN_POINT('',(-0.0034,0.03135,0.085354592997875));
#1165=CARTESIAN_POINT('',(-0.0034,0.0301341333162445,0.0850902861485816));
#1166=CARTESIAN_POINT('',(-0.0034,0.0279296468556494,0.0838869176047152));
#1167=CARTESIAN_POINT('',(-0.0034,0.0262858176910779,0.0820439978835712));
#1168=CARTESIAN_POINT('',(-0.0034,0.025495097567964,0.0810977426157721));
#1169=CARTESIAN_POINT('',(1.3010426069826E-18,0.03135,0.089502));
#1170=CARTESIAN_POINT('',(0.0034,0.03135,0.089502));
#1171=CARTESIAN_POINT('',(0.0034,0.03135,0.0851386866039025));
#1172=CARTESIAN_POINT('',(0.0034,0.03135,0.0851386866039025));
#1173=CARTESIAN_POINT('',(0.0034,0.0320068307261927,0.0854013927293845));
#1174=CARTESIAN_POINT('',(0.00319921024503139,0.032700926055621,0.0855));
#1175=CARTESIAN_POINT('',(0.00279729203142479,0.0332826555023924,0.0855));
#1176=CARTESIAN_POINT('',(-0.00306547416161247,0.0328206692913386,0.0855));
#1177=CARTESIAN_POINT('',(-0.00328765831691461,0.0323575469624713,0.0855));
#1178=CARTESIAN_POINT('',(-0.0034,0.0318522705512075,0.0854637772930417));
#1179=CARTESIAN_POINT('',(-0.0034,0.03135,0.085354592997875));
#1180=CARTESIAN_POINT('',(0.0034,0.0297728721798717,0.089502));
#1181=CARTESIAN_POINT('',(0.0034,0.0281957443597434,0.0805));
#1182=CARTESIAN_POINT('',(0.0034,0.0281957443597434,0.0815010038393013));
#1183=CARTESIAN_POINT('',(0.0034,0.0288089349821893,0.0834638572658414));
#1184=CARTESIAN_POINT('',(0.0034,0.0304207181126291,0.0847670108671006));
#1185=CARTESIAN_POINT('',(0.0034,0.03135,0.0851386866039025));
#1186=CARTESIAN_POINT('',(6.56021264078882E-18,0.025,0.0805));
#1187=CARTESIAN_POINT('',(-5.91867931650229E-18,0.0334,0.0805));
#1188=CARTESIAN_POINT('',(3.03576608295941E-18,-6.50521303491303E-19,0.0805));
#1189=CARTESIAN_POINT('',(0.025,-1.07762643298612E-17,0.0805));
#1190=CARTESIAN_POINT('',(0.0334,2.99008531020306E-18,0.0805));
#1191=CARTESIAN_POINT('',(3.03576608295941E-18,-6.50521303491303E-19,0.0805));
#1192=CARTESIAN_POINT('',(0.0254947894836972,-0.000499685816360756,0.0845));
#1193=CARTESIAN_POINT('',(0.0216338307808769,-0.000478433703926225,0.0854992275749051));
#1194=CARTESIAN_POINT('',(0.0218517623117297,-0.000483175368136852,0.0854906560045746));
#1195=CARTESIAN_POINT('',(0.0222278704776903,-0.000490231631895267,0.0853326415779428));
#1196=CARTESIAN_POINT('',(0.0225990291688178,-0.000497878005600742,0.0848394312520605));
#1197=CARTESIAN_POINT('',(0.0225944753000579,-0.000499685816360747,0.0845742507797764));
#1198=CARTESIAN_POINT('',(0.0225944753000579,-0.000499685816360747,0.0845));
#1199=CARTESIAN_POINT('',(2.38524477946811E-18,0.,0.0845));
#1200=CARTESIAN_POINT('',(-0.000423529411764704,0.0215958473516871,0.0845));
#1201=CARTESIAN_POINT('',(-0.000500000000000268,0.025495097567964,0.0845));
#1202=CARTESIAN_POINT('',(0.0254947894836972,-0.000499685816360756,0.051));
#1203=CARTESIAN_POINT('',(0.0225944753000579,-0.000499685816360756,0.051));
#1204=CARTESIAN_POINT('',(0.0225944753000579,-0.000499685816360756,0.0509257492277224));
#1205=CARTESIAN_POINT('',(0.0225990291653617,-0.000497878005905573,0.0506605688031966));
#1206=CARTESIAN_POINT('',(0.0222278705935009,-0.000490231634056825,0.050167358531698));
#1207=CARTESIAN_POINT('',(0.0218517625333078,-0.000483175372449052,0.0500093440618435));
#1208=CARTESIAN_POINT('',(0.0216338310449859,-0.000478433709672603,0.0500007724354828));
#1209=CARTESIAN_POINT('',(2.38524477946811E-18,0.,0.051));
#1210=CARTESIAN_POINT('',(-0.000423529411764704,0.0215958473516871,0.051));
#1211=CARTESIAN_POINT('',(-0.000500000000000268,0.025495097567964,0.051));
#1212=MECHANICAL_DESIGN_GEOMETRIC_PRESENTATION_REPRESENTATION('',(#617),
#1213);
#1213=(
GEOMETRIC_REPRESENTATION_CONTEXT(3)
GLOBAL_UNCERTAINTY_ASSIGNED_CONTEXT((#1214))
GLOBAL_UNIT_ASSIGNED_CONTEXT((#1217,#1216,#1215))
REPRESENTATION_CONTEXT('motor support shield','TOP_LEVEL_ASSEMBLY_PART')
);
#1214=UNCERTAINTY_MEASURE_WITH_UNIT(LENGTH_MEASURE(2.E-5),#1217,
'DISTANCE_ACCURACY_VALUE','Maximum Tolerance applied to model');
#1215=(
NAMED_UNIT(*)
SI_UNIT($,.STERADIAN.)
SOLID_ANGLE_UNIT()
);
#1216=(
NAMED_UNIT(*)
PLANE_ANGLE_UNIT()
SI_UNIT($,.RADIAN.)
);
#1217=(
LENGTH_UNIT()
NAMED_UNIT(*)
SI_UNIT($,.METRE.)
);
#1218=PRODUCT_DEFINITION_SHAPE('','',#1219);
#1219=PRODUCT_DEFINITION('','',#1221,#1220);
#1220=PRODUCT_DEFINITION_CONTEXT('',#1227,'design');
#1221=PRODUCT_DEFINITION_FORMATION_WITH_SPECIFIED_SOURCE('','',#1223,
 .NOT_KNOWN.);
#1222=PRODUCT_RELATED_PRODUCT_CATEGORY('','',(#1223));
#1223=PRODUCT('motor support shield','motor support shield',
'motor support shield',(#1225));
#1224=PRODUCT_CATEGORY('','');
#1225=PRODUCT_CONTEXT('',#1227,'mechanical');
#1226=APPLICATION_PROTOCOL_DEFINITION('international standard',
'ap242_managed_model_based_3d_engineering',2011,#1227);
#1227=APPLICATION_CONTEXT('managed model based 3d engineering');
ENDSEC;
END-ISO-10303-21;
