ISO-10303-21;
HEADER;
/* Generated by software containing ST-Developer
 * from STEP Tools, Inc. (www.steptools.com) 
 */
/* OPTION: using custom renumber hook */

FILE_DESCRIPTION(
/* description */ ('STEP AP242',
'CAx-IF Rec.Pracs.---Representation and Presentation of Product Manufa
cturing Information (PMI)---4.0---2014-10-13',
'CAx-IF Rec.Pracs.---3D Tessellated Geometry---0.4---2014-09-14','2;1'),

/* implementation_level */ '2;1');

FILE_NAME(
/* name */ '689540f1b54ea31df330f70c',
/* time_stamp */ '2025-08-08T00:12:33Z',
/* author */ (''),
/* organization */ (''),
/* preprocessor_version */ 'ST-DEVELOPER v20',
/* originating_system */ 'ONSHAPE BY PTC INC, 1.202',
/* authorisation */ '  ');

FILE_SCHEMA (('AP242_MANAGED_MODEL_BASED_3D_ENGINEERING_MIM_LF { 1 0 10303 442 1 1 4 }'));
ENDSEC;

DATA;
#10=SHAPE_REPRESENTATION_RELATIONSHIP('','',#220,#11);
#11=ADVANCED_BREP_SHAPE_REPRESENTATION('',(#218),#367);
#12=TOROIDAL_SURFACE('',#246,0.0031,0.001);
#13=CYLINDRICAL_SURFACE('',#233,0.0021);
#14=CYLINDRICAL_SURFACE('',#235,0.0046);
#15=CYLINDRICAL_SURFACE('',#240,0.0046);
#16=CYLINDRICAL_SURFACE('',#241,0.0021);
#17=CYLINDRICAL_SURFACE('',#243,0.0046);
#18=CIRCLE('',#230,0.0021);
#19=CIRCLE('',#232,0.0021);
#20=CIRCLE('',#234,0.0021);
#21=CIRCLE('',#236,0.0046);
#22=CIRCLE('',#238,0.0031);
#23=CIRCLE('',#239,0.0046);
#24=CIRCLE('',#242,0.0021);
#25=CIRCLE('',#244,0.0046);
#26=LINE('',#317,#38);
#27=LINE('',#320,#39);
#28=LINE('',#322,#40);
#29=LINE('',#324,#41);
#30=LINE('',#326,#42);
#31=LINE('',#328,#43);
#32=LINE('',#330,#44);
#33=LINE('',#334,#45);
#34=LINE('',#336,#46);
#35=LINE('',#338,#47);
#36=LINE('',#340,#48);
#37=LINE('',#341,#49);
#38=VECTOR('',#255,1.);
#39=VECTOR('',#256,1.);
#40=VECTOR('',#257,1.);
#41=VECTOR('',#258,1.);
#42=VECTOR('',#261,1.);
#43=VECTOR('',#262,1.);
#44=VECTOR('',#263,1.);
#45=VECTOR('',#268,1.);
#46=VECTOR('',#269,1.);
#47=VECTOR('',#270,1.);
#48=VECTOR('',#273,1.);
#49=VECTOR('',#274,1.);
#50=ORIENTED_EDGE('',*,*,#96,.F.);
#51=ORIENTED_EDGE('',*,*,#97,.F.);
#52=ORIENTED_EDGE('',*,*,#98,.F.);
#53=ORIENTED_EDGE('',*,*,#99,.F.);
#54=ORIENTED_EDGE('',*,*,#100,.T.);
#55=ORIENTED_EDGE('',*,*,#101,.T.);
#56=ORIENTED_EDGE('',*,*,#99,.T.);
#57=ORIENTED_EDGE('',*,*,#102,.F.);
#58=ORIENTED_EDGE('',*,*,#103,.F.);
#59=ORIENTED_EDGE('',*,*,#104,.T.);
#60=ORIENTED_EDGE('',*,*,#105,.T.);
#61=ORIENTED_EDGE('',*,*,#103,.T.);
#62=ORIENTED_EDGE('',*,*,#106,.F.);
#63=ORIENTED_EDGE('',*,*,#107,.F.);
#64=ORIENTED_EDGE('',*,*,#108,.T.);
#65=ORIENTED_EDGE('',*,*,#107,.T.);
#66=ORIENTED_EDGE('',*,*,#109,.F.);
#67=ORIENTED_EDGE('',*,*,#101,.F.);
#68=ORIENTED_EDGE('',*,*,#110,.T.);
#69=ORIENTED_EDGE('',*,*,#111,.T.);
#70=ORIENTED_EDGE('',*,*,#109,.T.);
#71=ORIENTED_EDGE('',*,*,#106,.T.);
#72=ORIENTED_EDGE('',*,*,#102,.T.);
#73=ORIENTED_EDGE('',*,*,#98,.T.);
#74=ORIENTED_EDGE('',*,*,#112,.T.);
#75=ORIENTED_EDGE('',*,*,#110,.F.);
#76=ORIENTED_EDGE('',*,*,#100,.F.);
#77=ORIENTED_EDGE('',*,*,#104,.F.);
#78=ORIENTED_EDGE('',*,*,#108,.F.);
#79=ORIENTED_EDGE('',*,*,#113,.T.);
#80=ORIENTED_EDGE('',*,*,#112,.F.);
#81=ORIENTED_EDGE('',*,*,#114,.T.);
#82=ORIENTED_EDGE('',*,*,#97,.T.);
#83=ORIENTED_EDGE('',*,*,#115,.T.);
#84=ORIENTED_EDGE('',*,*,#114,.F.);
#85=ORIENTED_EDGE('',*,*,#116,.F.);
#86=ORIENTED_EDGE('',*,*,#96,.T.);
#87=ORIENTED_EDGE('',*,*,#116,.T.);
#88=ORIENTED_EDGE('',*,*,#117,.T.);
#89=ORIENTED_EDGE('',*,*,#111,.F.);
#90=ORIENTED_EDGE('',*,*,#105,.F.);
#91=ORIENTED_EDGE('',*,*,#118,.F.);
#92=ORIENTED_EDGE('',*,*,#117,.F.);
#93=ORIENTED_EDGE('',*,*,#118,.T.);
#94=ORIENTED_EDGE('',*,*,#113,.F.);
#95=ORIENTED_EDGE('',*,*,#115,.F.);
#96=EDGE_CURVE('',#119,#120,#136,.F.);
#97=EDGE_CURVE('',#120,#119,#137,.F.);
#98=EDGE_CURVE('',#121,#122,#26,.T.);
#99=EDGE_CURVE('',#123,#121,#27,.T.);
#100=EDGE_CURVE('',#123,#124,#28,.F.);
#101=EDGE_CURVE('',#124,#122,#29,.T.);
#102=EDGE_CURVE('',#125,#121,#30,.F.);
#103=EDGE_CURVE('',#126,#125,#31,.T.);
#104=EDGE_CURVE('',#126,#123,#32,.F.);
#105=EDGE_CURVE('',#127,#127,#138,.F.);
#106=EDGE_CURVE('',#128,#125,#33,.T.);
#107=EDGE_CURVE('',#129,#128,#34,.T.);
#108=EDGE_CURVE('',#129,#126,#35,.T.);
#109=EDGE_CURVE('',#122,#128,#36,.T.);
#110=EDGE_CURVE('',#124,#129,#37,.F.);
#111=EDGE_CURVE('',#130,#130,#18,.T.);
#112=EDGE_CURVE('',#131,#131,#19,.T.);
#113=EDGE_CURVE('',#132,#132,#20,.F.);
#114=EDGE_CURVE('',#119,#120,#21,.T.);
#115=EDGE_CURVE('',#133,#133,#22,.T.);
#116=EDGE_CURVE('',#120,#119,#23,.T.);
#117=EDGE_CURVE('',#134,#134,#24,.T.);
#118=EDGE_CURVE('',#135,#135,#25,.T.);
#119=VERTEX_POINT('',#314);
#120=VERTEX_POINT('',#315);
#121=VERTEX_POINT('',#318);
#122=VERTEX_POINT('',#319);
#123=VERTEX_POINT('',#321);
#124=VERTEX_POINT('',#323);
#125=VERTEX_POINT('',#327);
#126=VERTEX_POINT('',#329);
#127=VERTEX_POINT('',#333);
#128=VERTEX_POINT('',#335);
#129=VERTEX_POINT('',#337);
#130=VERTEX_POINT('',#344);
#131=VERTEX_POINT('',#347);
#132=VERTEX_POINT('',#350);
#133=VERTEX_POINT('',#355);
#134=VERTEX_POINT('',#360);
#135=VERTEX_POINT('',#363);
#136=ELLIPSE('',#223,0.00650538238691623,0.0046);
#137=ELLIPSE('',#224,0.00650538238691623,0.0046);
#138=ELLIPSE('',#227,0.00650538238691623,0.0046);
#139=EDGE_LOOP('',(#50,#51));
#140=EDGE_LOOP('',(#52,#53,#54,#55));
#141=EDGE_LOOP('',(#56,#57,#58,#59));
#142=EDGE_LOOP('',(#60));
#143=EDGE_LOOP('',(#61,#62,#63,#64));
#144=EDGE_LOOP('',(#65,#66,#67,#68));
#145=EDGE_LOOP('',(#69));
#146=EDGE_LOOP('',(#70,#71,#72,#73));
#147=EDGE_LOOP('',(#74));
#148=EDGE_LOOP('',(#75,#76,#77,#78));
#149=EDGE_LOOP('',(#79));
#150=EDGE_LOOP('',(#80));
#151=EDGE_LOOP('',(#81,#82));
#152=EDGE_LOOP('',(#83));
#153=EDGE_LOOP('',(#84,#85));
#154=EDGE_LOOP('',(#86,#87));
#155=EDGE_LOOP('',(#88));
#156=EDGE_LOOP('',(#89));
#157=EDGE_LOOP('',(#90));
#158=EDGE_LOOP('',(#91));
#159=EDGE_LOOP('',(#92));
#160=EDGE_LOOP('',(#93));
#161=EDGE_LOOP('',(#94));
#162=EDGE_LOOP('',(#95));
#163=FACE_BOUND('',#139,.T.);
#164=FACE_BOUND('',#140,.T.);
#165=FACE_BOUND('',#141,.T.);
#166=FACE_BOUND('',#142,.T.);
#167=FACE_BOUND('',#143,.T.);
#168=FACE_BOUND('',#144,.T.);
#169=FACE_BOUND('',#145,.T.);
#170=FACE_BOUND('',#146,.T.);
#171=FACE_BOUND('',#147,.T.);
#172=FACE_BOUND('',#148,.T.);
#173=FACE_BOUND('',#149,.T.);
#174=FACE_BOUND('',#150,.T.);
#175=FACE_BOUND('',#151,.T.);
#176=FACE_BOUND('',#152,.T.);
#177=FACE_BOUND('',#153,.T.);
#178=FACE_BOUND('',#154,.T.);
#179=FACE_BOUND('',#155,.T.);
#180=FACE_BOUND('',#156,.T.);
#181=FACE_BOUND('',#157,.T.);
#182=FACE_BOUND('',#158,.T.);
#183=FACE_BOUND('',#159,.T.);
#184=FACE_BOUND('',#160,.T.);
#185=FACE_BOUND('',#161,.T.);
#186=FACE_BOUND('',#162,.T.);
#187=PLANE('',#222);
#188=PLANE('',#225);
#189=PLANE('',#226);
#190=PLANE('',#228);
#191=PLANE('',#229);
#192=PLANE('',#231);
#193=PLANE('',#237);
#194=PLANE('',#245);
#195=ADVANCED_FACE('',(#163,#164),#187,.F.);
#196=ADVANCED_FACE('',(#165),#188,.F.);
#197=ADVANCED_FACE('',(#166,#167),#189,.T.);
#198=ADVANCED_FACE('',(#168),#190,.F.);
#199=ADVANCED_FACE('',(#169,#170),#191,.F.);
#200=ADVANCED_FACE('',(#171,#172),#192,.F.);
#201=ADVANCED_FACE('',(#173,#174),#13,.F.);
#202=ADVANCED_FACE('',(#175),#14,.T.);
#203=ADVANCED_FACE('',(#176,#177),#193,.F.);
#204=ADVANCED_FACE('',(#178),#15,.F.);
#205=ADVANCED_FACE('',(#179,#180),#16,.F.);
#206=ADVANCED_FACE('',(#181,#182),#17,.T.);
#207=ADVANCED_FACE('',(#183,#184),#194,.T.);
#208=ADVANCED_FACE('',(#185,#186),#12,.T.);
#209=CLOSED_SHELL('',(#195,#196,#197,#198,#199,#200,#201,#202,#203,#204,
#205,#206,#207,#208));
#210=STYLED_ITEM('',(#211),#218);
#211=PRESENTATION_STYLE_ASSIGNMENT((#212));
#212=SURFACE_STYLE_USAGE(.BOTH.,#213);
#213=SURFACE_SIDE_STYLE('',(#214));
#214=SURFACE_STYLE_FILL_AREA(#215);
#215=FILL_AREA_STYLE('',(#216));
#216=FILL_AREA_STYLE_COLOUR('',#217);
#217=COLOUR_RGB('',0.2,0.2,0.2);
#218=MANIFOLD_SOLID_BREP('support leg straight',#209);
#219=SHAPE_DEFINITION_REPRESENTATION(#372,#220);
#220=SHAPE_REPRESENTATION('support leg straight',(#221),#367);
#221=AXIS2_PLACEMENT_3D('',#311,#247,#248);
#222=AXIS2_PLACEMENT_3D('',#312,#249,#250);
#223=AXIS2_PLACEMENT_3D('',#313,#251,#252);
#224=AXIS2_PLACEMENT_3D('',#316,#253,#254);
#225=AXIS2_PLACEMENT_3D('',#325,#259,#260);
#226=AXIS2_PLACEMENT_3D('',#331,#264,#265);
#227=AXIS2_PLACEMENT_3D('',#332,#266,#267);
#228=AXIS2_PLACEMENT_3D('',#339,#271,#272);
#229=AXIS2_PLACEMENT_3D('',#342,#275,#276);
#230=AXIS2_PLACEMENT_3D('',#343,#277,#278);
#231=AXIS2_PLACEMENT_3D('',#345,#279,#280);
#232=AXIS2_PLACEMENT_3D('',#346,#281,#282);
#233=AXIS2_PLACEMENT_3D('',#348,#283,#284);
#234=AXIS2_PLACEMENT_3D('',#349,#285,#286);
#235=AXIS2_PLACEMENT_3D('',#351,#287,#288);
#236=AXIS2_PLACEMENT_3D('',#352,#289,#290);
#237=AXIS2_PLACEMENT_3D('',#353,#291,#292);
#238=AXIS2_PLACEMENT_3D('',#354,#293,#294);
#239=AXIS2_PLACEMENT_3D('',#356,#295,#296);
#240=AXIS2_PLACEMENT_3D('',#357,#297,#298);
#241=AXIS2_PLACEMENT_3D('',#358,#299,#300);
#242=AXIS2_PLACEMENT_3D('',#359,#301,#302);
#243=AXIS2_PLACEMENT_3D('',#361,#303,#304);
#244=AXIS2_PLACEMENT_3D('',#362,#305,#306);
#245=AXIS2_PLACEMENT_3D('',#364,#307,#308);
#246=AXIS2_PLACEMENT_3D('',#365,#309,#310);
#247=DIRECTION('',(0.,0.,1.));
#248=DIRECTION('',(1.,0.,0.));
#249=DIRECTION('',(2.4532694666934E-16,0.707106781186547,0.707106781186548));
#250=DIRECTION('',(0.,-0.707106781186548,0.707106781186547));
#251=DIRECTION('',(2.4532694666934E-16,0.707106781186547,0.707106781186548));
#252=DIRECTION('',(-2.4532694666934E-16,-0.707106781186548,0.707106781186547));
#253=DIRECTION('',(2.4532694666934E-16,0.707106781186547,0.707106781186548));
#254=DIRECTION('',(-2.4532694666934E-16,-0.707106781186548,0.707106781186547));
#255=DIRECTION('',(-1.,0.,0.));
#256=DIRECTION('',(-5.11097805561125E-17,0.707106781186548,-0.707106781186547));
#257=DIRECTION('',(1.,-3.46944695195361E-16,0.));
#258=DIRECTION('',(3.57768463892787E-16,0.707106781186548,-0.707106781186547));
#259=DIRECTION('',(-1.,1.7347234759768E-16,-1.87928376564154E-16));
#260=DIRECTION('',(-1.87928376564154E-16,0.,1.));
#261=DIRECTION('',(-1.73472347597681E-16,1.,0.));
#262=DIRECTION('',(2.55548902780563E-16,0.707106781186548,-0.707106781186547));
#263=DIRECTION('',(1.7347234759768E-16,1.,0.));
#264=DIRECTION('',(0.,0.707106781186547,0.707106781186548));
#265=DIRECTION('',(0.,-0.707106781186548,0.707106781186547));
#266=DIRECTION('',(0.,0.707106781186547,0.707106781186548));
#267=DIRECTION('',(0.,0.707106781186548,-0.707106781186547));
#268=DIRECTION('',(1.,0.,0.));
#269=DIRECTION('',(-5.11097805561125E-17,0.707106781186548,-0.707106781186547));
#270=DIRECTION('',(1.,0.,0.));
#271=DIRECTION('',(1.,0.,5.0596101382657E-16));
#272=DIRECTION('',(5.0596101382657E-16,0.,-1.));
#273=DIRECTION('',(-1.73472347597681E-16,1.,0.));
#274=DIRECTION('',(0.,-1.,0.));
#275=DIRECTION('',(0.,0.,1.));
#276=DIRECTION('',(1.,0.,0.));
#277=DIRECTION('',(0.,0.,1.));
#278=DIRECTION('',(1.,0.,0.));
#279=DIRECTION('',(0.,0.,-1.));
#280=DIRECTION('',(1.,0.,0.));
#281=DIRECTION('',(0.,0.,-1.));
#282=DIRECTION('',(-1.,0.,0.));
#283=DIRECTION('',(0.,0.,1.));
#284=DIRECTION('',(1.,0.,0.));
#285=DIRECTION('',(0.,0.,1.));
#286=DIRECTION('',(1.,0.,0.));
#287=DIRECTION('',(0.,0.,1.));
#288=DIRECTION('',(1.,0.,0.));
#289=DIRECTION('',(0.,0.,1.));
#290=DIRECTION('',(1.,0.,0.));
#291=DIRECTION('',(0.,0.,1.));
#292=DIRECTION('',(1.,0.,0.));
#293=DIRECTION('',(0.,0.,1.));
#294=DIRECTION('',(1.,0.,0.));
#295=DIRECTION('',(0.,0.,1.));
#296=DIRECTION('',(1.,0.,0.));
#297=DIRECTION('',(0.,0.,1.));
#298=DIRECTION('',(1.,0.,0.));
#299=DIRECTION('',(0.,0.,-1.));
#300=DIRECTION('',(-1.,0.,0.));
#301=DIRECTION('',(0.,0.,1.));
#302=DIRECTION('',(1.,0.,0.));
#303=DIRECTION('',(0.,0.,-1.));
#304=DIRECTION('',(-1.,0.,0.));
#305=DIRECTION('',(0.,0.,1.));
#306=DIRECTION('',(1.,0.,0.));
#307=DIRECTION('',(0.,0.,1.));
#308=DIRECTION('',(1.,0.,0.));
#309=DIRECTION('',(0.,0.,1.));
#310=DIRECTION('',(1.,0.,0.));
#311=CARTESIAN_POINT('',(0.,0.,0.));
#312=CARTESIAN_POINT('',(6.93889390390721E-18,0.02,0.02));
#313=CARTESIAN_POINT('',(-5.20417042793042E-18,0.033,0.007));
#314=CARTESIAN_POINT('',(-0.00386134691526156,0.0355,0.0045));
#315=CARTESIAN_POINT('',(0.00386134691526155,0.0355,0.0045));
#316=CARTESIAN_POINT('',(-5.20417042793042E-18,0.033,0.007));
#317=CARTESIAN_POINT('',(-6.07153216591882E-18,0.04,0.));
#318=CARTESIAN_POINT('',(0.005,0.04,0.));
#319=CARTESIAN_POINT('',(-0.005,0.04,-8.67361737988404E-19));
#320=CARTESIAN_POINT('',(0.005,0.028,0.012));
#321=CARTESIAN_POINT('',(0.005,0.028,0.012));
#322=CARTESIAN_POINT('',(-1.12757025938492E-17,0.028,0.012));
#323=CARTESIAN_POINT('',(-0.005,0.028,0.012));
#324=CARTESIAN_POINT('',(-0.005,0.028,0.012));
#325=CARTESIAN_POINT('',(0.005,-8.673617379884E-19,9.39641882820771E-19));
#326=CARTESIAN_POINT('',(0.005,0.045,0.));
#327=CARTESIAN_POINT('',(0.005,0.05,1.7347234759768E-18));
#328=CARTESIAN_POINT('',(0.005,0.038,0.012));
#329=CARTESIAN_POINT('',(0.005,0.038,0.012));
#330=CARTESIAN_POINT('',(0.005,0.033,0.012));
#331=CARTESIAN_POINT('',(0.,0.025,0.025));
#332=CARTESIAN_POINT('',(-1.7347234759768E-18,0.045,0.005));
#333=CARTESIAN_POINT('',(-1.7347234759768E-18,0.0496,0.000400000000000009));
#334=CARTESIAN_POINT('',(-6.93889390390723E-18,0.05,0.));
#335=CARTESIAN_POINT('',(-0.005,0.05,1.7347234759768E-18));
#336=CARTESIAN_POINT('',(-0.005,0.038,0.012));
#337=CARTESIAN_POINT('',(-0.005,0.038,0.012));
#338=CARTESIAN_POINT('',(-8.67361737988404E-18,0.038,0.012));
#339=CARTESIAN_POINT('',(-0.005,0.,-2.52980506913285E-18));
#340=CARTESIAN_POINT('',(-0.005,0.045,0.));
#341=CARTESIAN_POINT('',(-0.005,0.033,0.012));
#342=CARTESIAN_POINT('',(0.00103553390593274,0.00103553390593274,0.));
#343=CARTESIAN_POINT('',(0.,0.045,0.));
#344=CARTESIAN_POINT('',(0.0021,0.045,0.));
#345=CARTESIAN_POINT('',(0.0164527957955108,0.0308817279836453,0.012));
#346=CARTESIAN_POINT('',(-5.20417042793042E-18,0.033,0.012));
#347=CARTESIAN_POINT('',(-0.00210000000000001,0.033,0.012));
#348=CARTESIAN_POINT('',(-5.20417042793042E-18,0.033,0.0045));
#349=CARTESIAN_POINT('',(-5.20417042793042E-18,0.033,0.0055));
#350=CARTESIAN_POINT('',(0.00209999999999999,0.033,0.0055));
#351=CARTESIAN_POINT('',(-5.20417042793042E-18,0.033,0.0045));
#352=CARTESIAN_POINT('',(-5.20417042793042E-18,0.033,0.0045));
#353=CARTESIAN_POINT('',(0.,0.,0.0045));
#354=CARTESIAN_POINT('',(-5.20417042793042E-18,0.033,0.0045));
#355=CARTESIAN_POINT('',(0.00309999999999999,0.033,0.0045));
#356=CARTESIAN_POINT('',(-5.20417042793042E-18,0.033,0.0045));
#357=CARTESIAN_POINT('',(-5.20417042793042E-18,0.033,-0.0205));
#358=CARTESIAN_POINT('',(0.,0.045,0.01));
#359=CARTESIAN_POINT('',(0.,0.045,0.01));
#360=CARTESIAN_POINT('',(0.0021,0.045,0.01));
#361=CARTESIAN_POINT('',(-1.7347234759768E-18,0.045,0.01));
#362=CARTESIAN_POINT('',(-1.7347234759768E-18,0.045,0.01));
#363=CARTESIAN_POINT('',(0.0046,0.045,0.01));
#364=CARTESIAN_POINT('',(0.,0.,0.01));
#365=CARTESIAN_POINT('',(-5.20417042793042E-18,0.033,0.0055));
#366=MECHANICAL_DESIGN_GEOMETRIC_PRESENTATION_REPRESENTATION('',(#210),
#367);
#367=(
GEOMETRIC_REPRESENTATION_CONTEXT(3)
GLOBAL_UNCERTAINTY_ASSIGNED_CONTEXT((#368))
GLOBAL_UNIT_ASSIGNED_CONTEXT((#371,#370,#369))
REPRESENTATION_CONTEXT('support leg straight','TOP_LEVEL_ASSEMBLY_PART')
);
#368=UNCERTAINTY_MEASURE_WITH_UNIT(LENGTH_MEASURE(1.E-8),#371,
'DISTANCE_ACCURACY_VALUE','Maximum Tolerance applied to model');
#369=(
NAMED_UNIT(*)
SI_UNIT($,.STERADIAN.)
SOLID_ANGLE_UNIT()
);
#370=(
NAMED_UNIT(*)
PLANE_ANGLE_UNIT()
SI_UNIT($,.RADIAN.)
);
#371=(
LENGTH_UNIT()
NAMED_UNIT(*)
SI_UNIT($,.METRE.)
);
#372=PRODUCT_DEFINITION_SHAPE('','',#373);
#373=PRODUCT_DEFINITION('','',#375,#374);
#374=PRODUCT_DEFINITION_CONTEXT('',#381,'design');
#375=PRODUCT_DEFINITION_FORMATION_WITH_SPECIFIED_SOURCE('','',#377,
 .NOT_KNOWN.);
#376=PRODUCT_RELATED_PRODUCT_CATEGORY('','',(#377));
#377=PRODUCT('support leg straight','support leg straight',
'support leg straight',(#379));
#378=PRODUCT_CATEGORY('','');
#379=PRODUCT_CONTEXT('',#381,'mechanical');
#380=APPLICATION_PROTOCOL_DEFINITION('international standard',
'ap242_managed_model_based_3d_engineering',2011,#381);
#381=APPLICATION_CONTEXT('managed model based 3d engineering');
ENDSEC;
END-ISO-10303-21;
