ISO-10303-21;
HEADER;
/* Generated by software containing ST-Developer
 * from STEP Tools, Inc. (www.steptools.com) 
 */
/* OPTION: using custom renumber hook */

FILE_DESCRIPTION(
/* description */ ('STEP AP242',
'CAx-IF Rec.Pracs.---Representation and Presentation of Product Manufa
cturing Information (PMI)---4.0---2014-10-13',
'CAx-IF Rec.Pracs.---3D Tessellated Geometry---0.4---2014-09-14','2;1'),

/* implementation_level */ '2;1');

FILE_NAME(
/* name */ '68954110b54ea31df330f71d',
/* time_stamp */ '2025-08-08T00:13:04Z',
/* author */ (''),
/* organization */ (''),
/* preprocessor_version */ 'ST-DEVELOPER v20',
/* originating_system */ 'ONSHAPE BY PTC INC, 1.202',
/* authorisation */ '  ');

FILE_SCHEMA (('AP242_MANAGED_MODEL_BASED_3D_ENGINEERING_MIM_LF { 1 0 10303 442 1 1 4 }'));
ENDSEC;

DATA;
#10=SHAPE_REPRESENTATION_RELATIONSHIP('','',#294,#11);
#11=ADVANCED_BREP_SHAPE_REPRESENTATION('',(#292),#485);
#12=TOROIDAL_SURFACE('',#324,0.0031,0.001);
#13=CYLINDRICAL_SURFACE('',#308,0.0021);
#14=CYLINDRICAL_SURFACE('',#310,0.0046);
#15=CYLINDRICAL_SURFACE('',#314,0.0021);
#16=CYLINDRICAL_SURFACE('',#316,0.0046);
#17=CYLINDRICAL_SURFACE('',#319,0.0021);
#18=CYLINDRICAL_SURFACE('',#321,0.0046);
#19=ELLIPSE('',#301,0.00494021504607693,0.0046);
#20=ELLIPSE('',#302,0.00494021504607692,0.0046);
#21=ELLIPSE('',#305,0.00536213739936672,0.0046);
#22=LINE('',#415,#40);
#23=LINE('',#418,#41);
#24=LINE('',#420,#42);
#25=LINE('',#422,#43);
#26=LINE('',#424,#44);
#27=LINE('',#426,#45);
#28=LINE('',#428,#46);
#29=LINE('',#430,#47);
#30=LINE('',#432,#48);
#31=LINE('',#434,#49);
#32=LINE('',#436,#50);
#33=LINE('',#437,#51);
#34=LINE('',#439,#52);
#35=LINE('',#441,#53);
#36=LINE('',#447,#54);
#37=LINE('',#448,#55);
#38=LINE('',#450,#56);
#39=LINE('',#454,#57);
#40=VECTOR('',#335,1.);
#41=VECTOR('',#336,1.);
#42=VECTOR('',#337,1.);
#43=VECTOR('',#338,1.);
#44=VECTOR('',#339,1.);
#45=VECTOR('',#340,1.);
#46=VECTOR('',#343,1.);
#47=VECTOR('',#344,1.);
#48=VECTOR('',#345,1.);
#49=VECTOR('',#346,1.);
#50=VECTOR('',#349,1.);
#51=VECTOR('',#350,1.);
#52=VECTOR('',#351,1.);
#53=VECTOR('',#352,1.);
#54=VECTOR('',#359,1.);
#55=VECTOR('',#360,1.);
#56=VECTOR('',#361,1.);
#57=VECTOR('',#366,1.);
#58=ORIENTED_EDGE('',*,*,#120,.T.);
#59=ORIENTED_EDGE('',*,*,#121,.T.);
#60=ORIENTED_EDGE('',*,*,#122,.F.);
#61=ORIENTED_EDGE('',*,*,#123,.F.);
#62=ORIENTED_EDGE('',*,*,#124,.F.);
#63=ORIENTED_EDGE('',*,*,#125,.F.);
#64=ORIENTED_EDGE('',*,*,#126,.F.);
#65=ORIENTED_EDGE('',*,*,#127,.F.);
#66=ORIENTED_EDGE('',*,*,#128,.F.);
#67=ORIENTED_EDGE('',*,*,#125,.T.);
#68=ORIENTED_EDGE('',*,*,#129,.T.);
#69=ORIENTED_EDGE('',*,*,#130,.F.);
#70=ORIENTED_EDGE('',*,*,#131,.F.);
#71=ORIENTED_EDGE('',*,*,#132,.F.);
#72=ORIENTED_EDGE('',*,*,#131,.T.);
#73=ORIENTED_EDGE('',*,*,#133,.F.);
#74=ORIENTED_EDGE('',*,*,#134,.F.);
#75=ORIENTED_EDGE('',*,*,#135,.F.);
#76=ORIENTED_EDGE('',*,*,#127,.T.);
#77=ORIENTED_EDGE('',*,*,#136,.T.);
#78=ORIENTED_EDGE('',*,*,#137,.T.);
#79=ORIENTED_EDGE('',*,*,#138,.F.);
#80=ORIENTED_EDGE('',*,*,#134,.T.);
#81=ORIENTED_EDGE('',*,*,#139,.F.);
#82=ORIENTED_EDGE('',*,*,#140,.F.);
#83=ORIENTED_EDGE('',*,*,#123,.T.);
#84=ORIENTED_EDGE('',*,*,#141,.F.);
#85=ORIENTED_EDGE('',*,*,#140,.T.);
#86=ORIENTED_EDGE('',*,*,#142,.F.);
#87=ORIENTED_EDGE('',*,*,#129,.F.);
#88=ORIENTED_EDGE('',*,*,#124,.T.);
#89=ORIENTED_EDGE('',*,*,#143,.T.);
#90=ORIENTED_EDGE('',*,*,#130,.T.);
#91=ORIENTED_EDGE('',*,*,#142,.T.);
#92=ORIENTED_EDGE('',*,*,#139,.T.);
#93=ORIENTED_EDGE('',*,*,#133,.T.);
#94=ORIENTED_EDGE('',*,*,#144,.T.);
#95=ORIENTED_EDGE('',*,*,#143,.F.);
#96=ORIENTED_EDGE('',*,*,#141,.T.);
#97=ORIENTED_EDGE('',*,*,#145,.T.);
#98=ORIENTED_EDGE('',*,*,#146,.T.);
#99=ORIENTED_EDGE('',*,*,#145,.F.);
#100=ORIENTED_EDGE('',*,*,#147,.T.);
#101=ORIENTED_EDGE('',*,*,#121,.F.);
#102=ORIENTED_EDGE('',*,*,#137,.F.);
#103=ORIENTED_EDGE('',*,*,#148,.F.);
#104=ORIENTED_EDGE('',*,*,#147,.F.);
#105=ORIENTED_EDGE('',*,*,#148,.T.);
#106=ORIENTED_EDGE('',*,*,#149,.T.);
#107=ORIENTED_EDGE('',*,*,#120,.F.);
#108=ORIENTED_EDGE('',*,*,#136,.F.);
#109=ORIENTED_EDGE('',*,*,#150,.F.);
#110=ORIENTED_EDGE('',*,*,#149,.F.);
#111=ORIENTED_EDGE('',*,*,#150,.T.);
#112=ORIENTED_EDGE('',*,*,#144,.F.);
#113=ORIENTED_EDGE('',*,*,#146,.F.);
#114=ORIENTED_EDGE('',*,*,#132,.T.);
#115=ORIENTED_EDGE('',*,*,#126,.T.);
#116=ORIENTED_EDGE('',*,*,#128,.T.);
#117=ORIENTED_EDGE('',*,*,#138,.T.);
#118=ORIENTED_EDGE('',*,*,#122,.T.);
#119=ORIENTED_EDGE('',*,*,#135,.T.);
#120=EDGE_CURVE('',#151,#151,#176,.T.);
#121=EDGE_CURVE('',#152,#152,#177,.T.);
#122=EDGE_CURVE('',#153,#154,#22,.T.);
#123=EDGE_CURVE('',#155,#153,#23,.T.);
#124=EDGE_CURVE('',#156,#155,#24,.T.);
#125=EDGE_CURVE('',#157,#156,#25,.T.);
#126=EDGE_CURVE('',#158,#157,#26,.T.);
#127=EDGE_CURVE('',#154,#158,#27,.T.);
#128=EDGE_CURVE('',#157,#159,#28,.T.);
#129=EDGE_CURVE('',#156,#160,#29,.T.);
#130=EDGE_CURVE('',#161,#160,#30,.T.);
#131=EDGE_CURVE('',#159,#161,#31,.T.);
#132=EDGE_CURVE('',#159,#158,#32,.T.);
#133=EDGE_CURVE('',#162,#161,#33,.T.);
#134=EDGE_CURVE('',#163,#162,#34,.T.);
#135=EDGE_CURVE('',#154,#163,#35,.T.);
#136=EDGE_CURVE('',#164,#164,#19,.F.);
#137=EDGE_CURVE('',#165,#165,#20,.F.);
#138=EDGE_CURVE('',#163,#153,#36,.T.);
#139=EDGE_CURVE('',#166,#162,#37,.T.);
#140=EDGE_CURVE('',#155,#166,#38,.T.);
#141=EDGE_CURVE('',#167,#167,#21,.T.);
#142=EDGE_CURVE('',#160,#166,#39,.T.);
#143=EDGE_CURVE('',#168,#168,#178,.T.);
#144=EDGE_CURVE('',#169,#169,#179,.F.);
#145=EDGE_CURVE('',#170,#170,#180,.T.);
#146=EDGE_CURVE('',#171,#171,#181,.T.);
#147=EDGE_CURVE('',#172,#172,#182,.T.);
#148=EDGE_CURVE('',#173,#173,#183,.T.);
#149=EDGE_CURVE('',#174,#174,#184,.T.);
#150=EDGE_CURVE('',#175,#175,#185,.T.);
#151=VERTEX_POINT('',#412);
#152=VERTEX_POINT('',#414);
#153=VERTEX_POINT('',#416);
#154=VERTEX_POINT('',#417);
#155=VERTEX_POINT('',#419);
#156=VERTEX_POINT('',#421);
#157=VERTEX_POINT('',#423);
#158=VERTEX_POINT('',#425);
#159=VERTEX_POINT('',#429);
#160=VERTEX_POINT('',#431);
#161=VERTEX_POINT('',#433);
#162=VERTEX_POINT('',#438);
#163=VERTEX_POINT('',#440);
#164=VERTEX_POINT('',#443);
#165=VERTEX_POINT('',#445);
#166=VERTEX_POINT('',#449);
#167=VERTEX_POINT('',#453);
#168=VERTEX_POINT('',#457);
#169=VERTEX_POINT('',#460);
#170=VERTEX_POINT('',#463);
#171=VERTEX_POINT('',#466);
#172=VERTEX_POINT('',#469);
#173=VERTEX_POINT('',#472);
#174=VERTEX_POINT('',#476);
#175=VERTEX_POINT('',#479);
#176=CIRCLE('',#297,0.0021);
#177=CIRCLE('',#298,0.0021);
#178=CIRCLE('',#307,0.0021);
#179=CIRCLE('',#309,0.0021);
#180=CIRCLE('',#311,0.0046);
#181=CIRCLE('',#313,0.0031);
#182=CIRCLE('',#315,0.0021);
#183=CIRCLE('',#317,0.0046);
#184=CIRCLE('',#320,0.0021);
#185=CIRCLE('',#322,0.0046);
#186=EDGE_LOOP('',(#58));
#187=EDGE_LOOP('',(#59));
#188=EDGE_LOOP('',(#60,#61,#62,#63,#64,#65));
#189=EDGE_LOOP('',(#66,#67,#68,#69,#70));
#190=EDGE_LOOP('',(#71,#72,#73,#74,#75,#76));
#191=EDGE_LOOP('',(#77));
#192=EDGE_LOOP('',(#78));
#193=EDGE_LOOP('',(#79,#80,#81,#82,#83));
#194=EDGE_LOOP('',(#84));
#195=EDGE_LOOP('',(#85,#86,#87,#88));
#196=EDGE_LOOP('',(#89));
#197=EDGE_LOOP('',(#90,#91,#92,#93));
#198=EDGE_LOOP('',(#94));
#199=EDGE_LOOP('',(#95));
#200=EDGE_LOOP('',(#96));
#201=EDGE_LOOP('',(#97));
#202=EDGE_LOOP('',(#98));
#203=EDGE_LOOP('',(#99));
#204=EDGE_LOOP('',(#100));
#205=EDGE_LOOP('',(#101));
#206=EDGE_LOOP('',(#102));
#207=EDGE_LOOP('',(#103));
#208=EDGE_LOOP('',(#104));
#209=EDGE_LOOP('',(#105));
#210=EDGE_LOOP('',(#106));
#211=EDGE_LOOP('',(#107));
#212=EDGE_LOOP('',(#108));
#213=EDGE_LOOP('',(#109));
#214=EDGE_LOOP('',(#110));
#215=EDGE_LOOP('',(#111));
#216=EDGE_LOOP('',(#112));
#217=EDGE_LOOP('',(#113));
#218=EDGE_LOOP('',(#114,#115,#116));
#219=EDGE_LOOP('',(#117,#118,#119));
#220=FACE_BOUND('',#186,.T.);
#221=FACE_BOUND('',#187,.T.);
#222=FACE_BOUND('',#188,.T.);
#223=FACE_BOUND('',#189,.T.);
#224=FACE_BOUND('',#190,.T.);
#225=FACE_BOUND('',#191,.T.);
#226=FACE_BOUND('',#192,.T.);
#227=FACE_BOUND('',#193,.T.);
#228=FACE_BOUND('',#194,.T.);
#229=FACE_BOUND('',#195,.T.);
#230=FACE_BOUND('',#196,.T.);
#231=FACE_BOUND('',#197,.T.);
#232=FACE_BOUND('',#198,.T.);
#233=FACE_BOUND('',#199,.T.);
#234=FACE_BOUND('',#200,.T.);
#235=FACE_BOUND('',#201,.T.);
#236=FACE_BOUND('',#202,.T.);
#237=FACE_BOUND('',#203,.T.);
#238=FACE_BOUND('',#204,.T.);
#239=FACE_BOUND('',#205,.T.);
#240=FACE_BOUND('',#206,.T.);
#241=FACE_BOUND('',#207,.T.);
#242=FACE_BOUND('',#208,.T.);
#243=FACE_BOUND('',#209,.T.);
#244=FACE_BOUND('',#210,.T.);
#245=FACE_BOUND('',#211,.T.);
#246=FACE_BOUND('',#212,.T.);
#247=FACE_BOUND('',#213,.T.);
#248=FACE_BOUND('',#214,.T.);
#249=FACE_BOUND('',#215,.T.);
#250=FACE_BOUND('',#216,.T.);
#251=FACE_BOUND('',#217,.T.);
#252=FACE_BOUND('',#218,.T.);
#253=FACE_BOUND('',#219,.T.);
#254=PLANE('',#296);
#255=PLANE('',#299);
#256=PLANE('',#300);
#257=PLANE('',#303);
#258=PLANE('',#304);
#259=PLANE('',#306);
#260=PLANE('',#312);
#261=PLANE('',#318);
#262=PLANE('',#323);
#263=PLANE('',#325);
#264=PLANE('',#326);
#265=ADVANCED_FACE('',(#220,#221,#222),#254,.F.);
#266=ADVANCED_FACE('',(#223),#255,.T.);
#267=ADVANCED_FACE('',(#224,#225,#226),#256,.T.);
#268=ADVANCED_FACE('',(#227),#257,.T.);
#269=ADVANCED_FACE('',(#228,#229),#258,.T.);
#270=ADVANCED_FACE('',(#230,#231),#259,.F.);
#271=ADVANCED_FACE('',(#232,#233),#13,.F.);
#272=ADVANCED_FACE('',(#234,#235),#14,.T.);
#273=ADVANCED_FACE('',(#236,#237),#260,.F.);
#274=ADVANCED_FACE('',(#238,#239),#15,.F.);
#275=ADVANCED_FACE('',(#240,#241),#16,.T.);
#276=ADVANCED_FACE('',(#242,#243),#261,.T.);
#277=ADVANCED_FACE('',(#244,#245),#17,.F.);
#278=ADVANCED_FACE('',(#246,#247),#18,.T.);
#279=ADVANCED_FACE('',(#248,#249),#262,.T.);
#280=ADVANCED_FACE('',(#250,#251),#12,.T.);
#281=ADVANCED_FACE('',(#252),#263,.F.);
#282=ADVANCED_FACE('',(#253),#264,.F.);
#283=CLOSED_SHELL('',(#265,#266,#267,#268,#269,#270,#271,#272,#273,#274,
#275,#276,#277,#278,#279,#280,#281,#282));
#284=STYLED_ITEM('',(#285),#292);
#285=PRESENTATION_STYLE_ASSIGNMENT((#286));
#286=SURFACE_STYLE_USAGE(.BOTH.,#287);
#287=SURFACE_SIDE_STYLE('',(#288));
#288=SURFACE_STYLE_FILL_AREA(#289);
#289=FILL_AREA_STYLE('',(#290));
#290=FILL_AREA_STYLE_COLOUR('',#291);
#291=COLOUR_RGB('',0.2,0.2,0.2);
#292=MANIFOLD_SOLID_BREP('support leg diagonal',#283);
#293=SHAPE_DEFINITION_REPRESENTATION(#490,#294);
#294=SHAPE_REPRESENTATION('support leg diagonal',(#295),#485);
#295=AXIS2_PLACEMENT_3D('',#409,#327,#328);
#296=AXIS2_PLACEMENT_3D('',#410,#329,#330);
#297=AXIS2_PLACEMENT_3D('',#411,#331,#332);
#298=AXIS2_PLACEMENT_3D('',#413,#333,#334);
#299=AXIS2_PLACEMENT_3D('',#427,#341,#342);
#300=AXIS2_PLACEMENT_3D('',#435,#347,#348);
#301=AXIS2_PLACEMENT_3D('',#442,#353,#354);
#302=AXIS2_PLACEMENT_3D('',#444,#355,#356);
#303=AXIS2_PLACEMENT_3D('',#446,#357,#358);
#304=AXIS2_PLACEMENT_3D('',#451,#362,#363);
#305=AXIS2_PLACEMENT_3D('',#452,#364,#365);
#306=AXIS2_PLACEMENT_3D('',#455,#367,#368);
#307=AXIS2_PLACEMENT_3D('',#456,#369,#370);
#308=AXIS2_PLACEMENT_3D('',#458,#371,#372);
#309=AXIS2_PLACEMENT_3D('',#459,#373,#374);
#310=AXIS2_PLACEMENT_3D('',#461,#375,#376);
#311=AXIS2_PLACEMENT_3D('',#462,#377,#378);
#312=AXIS2_PLACEMENT_3D('',#464,#379,#380);
#313=AXIS2_PLACEMENT_3D('',#465,#381,#382);
#314=AXIS2_PLACEMENT_3D('',#467,#383,#384);
#315=AXIS2_PLACEMENT_3D('',#468,#385,#386);
#316=AXIS2_PLACEMENT_3D('',#470,#387,#388);
#317=AXIS2_PLACEMENT_3D('',#471,#389,#390);
#318=AXIS2_PLACEMENT_3D('',#473,#391,#392);
#319=AXIS2_PLACEMENT_3D('',#474,#393,#394);
#320=AXIS2_PLACEMENT_3D('',#475,#395,#396);
#321=AXIS2_PLACEMENT_3D('',#477,#397,#398);
#322=AXIS2_PLACEMENT_3D('',#478,#399,#400);
#323=AXIS2_PLACEMENT_3D('',#480,#401,#402);
#324=AXIS2_PLACEMENT_3D('',#481,#403,#404);
#325=AXIS2_PLACEMENT_3D('',#482,#405,#406);
#326=AXIS2_PLACEMENT_3D('',#483,#407,#408);
#327=DIRECTION('',(0.,0.,1.));
#328=DIRECTION('',(1.,0.,0.));
#329=DIRECTION('',(0.,0.,1.));
#330=DIRECTION('',(1.,0.,0.));
#331=DIRECTION('',(0.,0.,1.));
#332=DIRECTION('',(1.,0.,0.));
#333=DIRECTION('',(0.,0.,1.));
#334=DIRECTION('',(1.,0.,0.));
#335=DIRECTION('',(0.,1.,0.));
#336=DIRECTION('',(0.707106781186547,0.707106781186549,0.));
#337=DIRECTION('',(0.707106781186549,-0.707106781186546,0.));
#338=DIRECTION('',(-0.707106781186546,-0.707106781186549,0.));
#339=DIRECTION('',(-1.,-1.38777878078145E-16,0.));
#340=DIRECTION('',(-0.707106781186549,0.707106781186546,0.));
#341=DIRECTION('',(-0.707106781186549,0.707106781186546,-4.96916140535781E-15));
#342=DIRECTION('',(-0.707106781186546,-0.707106781186549,0.));
#343=DIRECTION('',(-7.02745545307795E-15,-9.75255356066843E-31,1.));
#344=DIRECTION('',(-0.606603477531604,-0.606603477531603,0.513872009447033));
#345=DIRECTION('',(-0.707106781186548,-0.707106781186547,0.));
#346=DIRECTION('',(-0.658410851171572,-0.658410851171573,0.364678354333034));
#347=DIRECTION('',(0.257866537300839,0.25786653730084,0.931133555340452));
#348=DIRECTION('',(0.,-0.963726250193525,0.266892702575263));
#349=DIRECTION('',(0.963726250193525,1.33743884050064E-16,-0.266892702575262));
#350=DIRECTION('',(-0.707106781186547,0.707106781186548,0.));
#351=DIRECTION('',(-0.658410851171573,-0.658410851171573,0.364678354333034));
#352=DIRECTION('',(0.,-0.963726250193525,0.266892702575263));
#353=DIRECTION('',(0.257866537300839,0.25786653730084,0.931133555340452));
#354=DIRECTION('',(0.658410851171572,0.658410851171574,-0.364678354333034));
#355=DIRECTION('',(0.257866537300839,0.25786653730084,0.931133555340452));
#356=DIRECTION('',(0.658410851171572,0.658410851171574,-0.364678354333034));
#357=DIRECTION('',(0.707106781186549,-0.707106781186546,5.29323714918549E-15));
#358=DIRECTION('',(0.707106781186546,0.707106781186549,0.));
#359=DIRECTION('',(0.,-7.48576776523524E-15,-1.));
#360=DIRECTION('',(0.707106781186548,0.707106781186548,0.));
#361=DIRECTION('',(-0.606603477531604,-0.606603477531602,0.513872009447033));
#362=DIRECTION('',(-0.363362382541954,-0.363362382541955,-0.857866864907876));
#363=DIRECTION('',(0.,0.920805896777301,-0.390021153862391));
#364=DIRECTION('',(-0.363362382541954,-0.363362382541955,-0.857866864907876));
#365=DIRECTION('',(-0.606603477531602,-0.606603477531605,0.513872009447033));
#366=DIRECTION('',(0.707106781186547,-0.707106781186548,0.));
#367=DIRECTION('',(0.,0.,-1.));
#368=DIRECTION('',(1.,0.,0.));
#369=DIRECTION('',(0.,0.,-1.));
#370=DIRECTION('',(-1.,0.,0.));
#371=DIRECTION('',(0.,0.,1.));
#372=DIRECTION('',(1.,0.,0.));
#373=DIRECTION('',(0.,0.,1.));
#374=DIRECTION('',(1.,0.,0.));
#375=DIRECTION('',(0.,0.,1.));
#376=DIRECTION('',(1.,0.,0.));
#377=DIRECTION('',(0.,0.,1.));
#378=DIRECTION('',(1.,0.,0.));
#379=DIRECTION('',(0.,0.,1.));
#380=DIRECTION('',(1.,0.,0.));
#381=DIRECTION('',(0.,0.,1.));
#382=DIRECTION('',(1.,0.,0.));
#383=DIRECTION('',(0.,0.,-1.));
#384=DIRECTION('',(-1.,0.,0.));
#385=DIRECTION('',(0.,0.,1.));
#386=DIRECTION('',(1.,0.,0.));
#387=DIRECTION('',(0.,0.,-1.));
#388=DIRECTION('',(-1.,0.,0.));
#389=DIRECTION('',(0.,0.,1.));
#390=DIRECTION('',(1.,0.,0.));
#391=DIRECTION('',(0.,0.,1.));
#392=DIRECTION('',(1.,0.,0.));
#393=DIRECTION('',(0.,0.,-1.));
#394=DIRECTION('',(-1.,0.,0.));
#395=DIRECTION('',(0.,0.,1.));
#396=DIRECTION('',(1.,0.,0.));
#397=DIRECTION('',(0.,0.,-1.));
#398=DIRECTION('',(-1.,0.,0.));
#399=DIRECTION('',(0.,0.,1.));
#400=DIRECTION('',(1.,0.,0.));
#401=DIRECTION('',(0.,0.,1.));
#402=DIRECTION('',(1.,0.,0.));
#403=DIRECTION('',(0.,0.,1.));
#404=DIRECTION('',(1.,0.,0.));
#405=DIRECTION('',(1.38777878078145E-16,-1.,0.));
#406=DIRECTION('',(1.,1.38777878078145E-16,0.));
#407=DIRECTION('',(-1.,0.,0.));
#408=DIRECTION('',(0.,0.,1.));
#409=CARTESIAN_POINT('',(0.,0.,0.));
#410=CARTESIAN_POINT('',(0.00103553390593274,0.00103553390593274,0.));
#411=CARTESIAN_POINT('',(0.045,0.045,0.));
#412=CARTESIAN_POINT('',(0.0471,0.045,0.));
#413=CARTESIAN_POINT('',(0.0375,0.0375,0.));
#414=CARTESIAN_POINT('',(0.0396,0.0375,0.));
#415=CARTESIAN_POINT('',(0.05,6.93889390390723E-18,0.));
#416=CARTESIAN_POINT('',(0.05,0.0429289321881346,0.));
#417=CARTESIAN_POINT('',(0.05,0.0470710678118655,-2.60208521396521E-18));
#418=CARTESIAN_POINT('',(0.0447855339059327,0.0377144660940672,0.));
#419=CARTESIAN_POINT('',(0.0375,0.0304289321881345,0.));
#420=CARTESIAN_POINT('',(0.0339644660940672,0.0339644660940672,0.));
#421=CARTESIAN_POINT('',(0.0304289321881345,0.0375,0.));
#422=CARTESIAN_POINT('',(0.0377144660940672,0.0447855339059327,0.));
#423=CARTESIAN_POINT('',(0.0429289321881344,0.05,0.));
#424=CARTESIAN_POINT('',(6.93889390390723E-18,0.05,0.));
#425=CARTESIAN_POINT('',(0.0470710678118655,0.05,0.));
#426=CARTESIAN_POINT('',(0.0485355339059327,0.0485355339059328,0.));
#427=CARTESIAN_POINT('',(-0.00353553390593266,0.00353553390593265,-2.48458070267884E-17));
#428=CARTESIAN_POINT('',(0.0429289321881345,0.05,3.01681158600319E-16));
#429=CARTESIAN_POINT('',(0.0429289321881345,0.05,0.00114711596869842));
#430=CARTESIAN_POINT('',(0.0304289321881345,0.0375,0.));
#431=CARTESIAN_POINT('',(0.0162634559672906,0.0233345237791561,0.012));
#432=CARTESIAN_POINT('',(0.0197989898732233,0.0268700576850888,0.012));
#433=CARTESIAN_POINT('',(0.023334523779156,0.0304055915910216,0.012));
#434=CARTESIAN_POINT('',(0.045,0.0520710678118655,0.));
#435=CARTESIAN_POINT('',(0.00645475531765938,0.00645475531765941,0.0233075579743527));
#436=CARTESIAN_POINT('',(0.00335295287243089,0.05,0.0121072201212104));
#437=CARTESIAN_POINT('',(0.0268700576850888,0.0268700576850888,0.012));
#438=CARTESIAN_POINT('',(0.0304055915910216,0.023334523779156,0.012));
#439=CARTESIAN_POINT('',(0.0520710678118655,0.045,0.));
#440=CARTESIAN_POINT('',(0.05,0.0429289321881345,0.0011471159686984));
#441=CARTESIAN_POINT('',(0.05,0.00335295287243092,0.0121072201212104));
#442=CARTESIAN_POINT('',(0.045,0.045,0.00195824944897243));
#443=CARTESIAN_POINT('',(0.0482526911934581,0.0482526911934581,0.000156659955917799));
#444=CARTESIAN_POINT('',(0.0375,0.0375,0.00611232384284209));
#445=CARTESIAN_POINT('',(0.0407526911934581,0.0407526911934581,0.00431073434978746));
#446=CARTESIAN_POINT('',(0.00353553390593281,-0.0035355339059328,2.6466185745928E-17));
#447=CARTESIAN_POINT('',(0.05,0.0429289321881345,-3.21356016769907E-16));
#448=CARTESIAN_POINT('',(0.0268700576850888,0.0197989898732233,0.012));
#449=CARTESIAN_POINT('',(0.023334523779156,0.0162634559672906,0.012));
#450=CARTESIAN_POINT('',(0.0375,0.0304289321881345,0.));
#451=CARTESIAN_POINT('',(0.00896880779012094,0.00896880779012098,0.0211745722467131));
#452=CARTESIAN_POINT('',(0.023334523779156,0.0233345237791561,0.00900494313006123));
#453=CARTESIAN_POINT('',(0.0200818325856979,0.020081832585698,0.0117603954504049));
#454=CARTESIAN_POINT('',(0.0197989898732233,0.0197989898732233,0.012));
#455=CARTESIAN_POINT('',(0.0164527957955108,0.0308817279836453,0.012));
#456=CARTESIAN_POINT('',(0.023334523779156,0.023334523779156,0.012));
#457=CARTESIAN_POINT('',(0.021234523779156,0.023334523779156,0.012));
#458=CARTESIAN_POINT('',(0.023334523779156,0.023334523779156,0.0045));
#459=CARTESIAN_POINT('',(0.023334523779156,0.023334523779156,0.0055));
#460=CARTESIAN_POINT('',(0.025434523779156,0.023334523779156,0.0055));
#461=CARTESIAN_POINT('',(0.023334523779156,0.0233345237791561,0.0045));
#462=CARTESIAN_POINT('',(0.023334523779156,0.0233345237791561,0.0045));
#463=CARTESIAN_POINT('',(0.027934523779156,0.0233345237791561,0.0045));
#464=CARTESIAN_POINT('',(0.,0.,0.0045));
#465=CARTESIAN_POINT('',(0.023334523779156,0.023334523779156,0.0045));
#466=CARTESIAN_POINT('',(0.026434523779156,0.023334523779156,0.0045));
#467=CARTESIAN_POINT('',(0.0375,0.0375,0.01));
#468=CARTESIAN_POINT('',(0.0375,0.0375,0.01));
#469=CARTESIAN_POINT('',(0.0396,0.0375,0.01));
#470=CARTESIAN_POINT('',(0.0375,0.0375,0.01));
#471=CARTESIAN_POINT('',(0.0375,0.0375,0.01));
#472=CARTESIAN_POINT('',(0.0421,0.0375,0.01));
#473=CARTESIAN_POINT('',(0.,0.,0.01));
#474=CARTESIAN_POINT('',(0.045,0.045,0.01));
#475=CARTESIAN_POINT('',(0.045,0.045,0.01));
#476=CARTESIAN_POINT('',(0.0471,0.045,0.01));
#477=CARTESIAN_POINT('',(0.045,0.045,0.01));
#478=CARTESIAN_POINT('',(0.045,0.045,0.01));
#479=CARTESIAN_POINT('',(0.0496,0.045,0.01));
#480=CARTESIAN_POINT('',(0.,0.,0.01));
#481=CARTESIAN_POINT('',(0.023334523779156,0.023334523779156,0.0055));
#482=CARTESIAN_POINT('',(6.93889390390723E-18,0.05,0.012002));
#483=CARTESIAN_POINT('',(0.05,6.93889390390723E-18,0.012002));
#484=MECHANICAL_DESIGN_GEOMETRIC_PRESENTATION_REPRESENTATION('',(#284),
#485);
#485=(
GEOMETRIC_REPRESENTATION_CONTEXT(3)
GLOBAL_UNCERTAINTY_ASSIGNED_CONTEXT((#486))
GLOBAL_UNIT_ASSIGNED_CONTEXT((#489,#488,#487))
REPRESENTATION_CONTEXT('support leg diagonal','TOP_LEVEL_ASSEMBLY_PART')
);
#486=UNCERTAINTY_MEASURE_WITH_UNIT(LENGTH_MEASURE(1.E-8),#489,
'DISTANCE_ACCURACY_VALUE','Maximum Tolerance applied to model');
#487=(
NAMED_UNIT(*)
SI_UNIT($,.STERADIAN.)
SOLID_ANGLE_UNIT()
);
#488=(
NAMED_UNIT(*)
PLANE_ANGLE_UNIT()
SI_UNIT($,.RADIAN.)
);
#489=(
LENGTH_UNIT()
NAMED_UNIT(*)
SI_UNIT($,.METRE.)
);
#490=PRODUCT_DEFINITION_SHAPE('','',#491);
#491=PRODUCT_DEFINITION('','',#493,#492);
#492=PRODUCT_DEFINITION_CONTEXT('',#499,'design');
#493=PRODUCT_DEFINITION_FORMATION_WITH_SPECIFIED_SOURCE('','',#495,
 .NOT_KNOWN.);
#494=PRODUCT_RELATED_PRODUCT_CATEGORY('','',(#495));
#495=PRODUCT('support leg diagonal','support leg diagonal',
'support leg diagonal',(#497));
#496=PRODUCT_CATEGORY('','');
#497=PRODUCT_CONTEXT('',#499,'mechanical');
#498=APPLICATION_PROTOCOL_DEFINITION('international standard',
'ap242_managed_model_based_3d_engineering',2011,#499);
#499=APPLICATION_CONTEXT('managed model based 3d engineering');
ENDSEC;
END-ISO-10303-21;
